<?xml version="1.0" standalone="no"?>
<!DOCTYPE svg PUBLIC "-//W3C//DTD SVG 20010904//EN"
 "http://www.w3.org/TR/2001/REC-SVG-20010904/DTD/svg10.dtd">
<svg version="1.0" xmlns="http://www.w3.org/2000/svg"
 width="980.000000pt" height="980.000000pt" viewBox="0 0 980.000000 980.000000"
 preserveAspectRatio="xMidYMid meet">

<g transform="translate(0.000000,980.000000) scale(0.100000,-0.100000)"
fill="#000000" stroke="none">
<path d="M4685 7739 c-449 -33 -901 -180 -1290 -422 -469 -292 -867 -746
-1089 -1244 -410 -918 -315 -1973 252 -2792 297 -428 731 -787 1197 -988 977
-423 2087 -278 2918 379 130 103 351 324 453 453 548 693 745 1577 543 2435
-167 708 -605 1328 -1228 1734 -391 255 -859 410 -1346 446 -157 11 -237 11
-410 -1z m551 -304 c450 -64 849 -229 1207 -498 131 -99 345 -305 445 -429
288 -357 473 -780 544 -1248 28 -178 30 -507 4 -690 -79 -577 -329 -1077 -740
-1485 -399 -396 -902 -643 -1466 -721 -185 -26 -510 -24 -695 4 -391 60 -738
194 -1056 408 -158 107 -243 177 -394 329 -392 392 -639 892 -721 1460 -26
179 -24 515 4 700 87 564 326 1039 727 1440 444 446 986 692 1645 749 85 7
395 -4 496 -19z"/>
<path d="M5485 7046 c-25 -12 -359 -307 -751 -662 -45 -41 -85 -74 -90 -74 -5
0 -74 66 -154 146 -153 153 -180 174 -230 174 -105 0 -173 -96 -136 -193 22
-58 496 -534 519 -521 8 5 160 140 338 300 178 160 403 362 499 448 178 159
210 197 210 251 0 39 -28 94 -61 118 -34 25 -105 31 -144 13z"/>
<path d="M5707 5649 c-51 -12 -87 -32 -119 -66 -95 -99 -96 -310 -2 -407 56
-58 89 -71 179 -71 90 0 123 13 179 71 96 99 93 316 -7 412 -56 54 -153 80
-230 61z m104 -158 c22 -18 24 -27 24 -109 0 -104 -15 -132 -70 -132 -41 0
-65 27 -76 85 -23 124 49 216 122 156z"/>
<path d="M6302 5623 c-11 -16 -54 -80 -97 -143 -43 -63 -183 -269 -312 -456
-128 -188 -233 -345 -233 -348 0 -3 44 -6 98 -6 l99 0 129 190 c71 105 170
250 220 323 49 73 140 205 201 294 61 89 108 164 105 167 -3 3 -47 6 -98 6
-90 0 -93 -1 -112 -27z"/>
<path d="M3983 5621 c-64 -24 -97 -46 -149 -103 -79 -86 -118 -204 -118 -363
0 -174 40 -282 138 -380 83 -82 158 -109 284 -103 186 9 315 119 367 314 21
79 21 260 0 338 -36 134 -114 233 -223 284 -77 36 -220 42 -299 13z m225 -188
c15 -11 41 -44 57 -74 29 -53 30 -57 30 -199 0 -136 -2 -149 -26 -201 -36 -76
-77 -104 -150 -104 -69 0 -116 32 -148 100 -42 89 -47 284 -11 381 17 44 55
89 92 108 42 21 120 16 156 -11z"/>
<path d="M4903 5621 c-163 -56 -255 -200 -270 -421 -15 -233 72 -417 235 -497
52 -26 67 -28 167 -28 97 0 116 3 165 26 64 30 136 97 174 161 14 25 36 83 47
129 28 109 23 280 -11 377 -43 124 -142 224 -254 257 -68 20 -189 19 -253 -4z
m213 -186 c75 -44 111 -158 101 -320 -9 -140 -42 -210 -115 -246 -97 -48 -196
10 -235 135 -7 23 -12 93 -12 161 1 103 4 127 23 170 53 117 144 155 238 100z"/>
<path d="M3140 5540 l0 -90 95 0 95 0 0 -385 0 -385 110 0 110 0 0 475 0 475
-205 0 -205 0 0 -90z"/>
<path d="M6318 5197 c-104 -39 -158 -130 -158 -268 0 -166 93 -270 243 -271
80 0 139 24 188 79 49 54 64 102 63 198 0 167 -83 263 -234 272 -39 2 -79 -2
-102 -10z m146 -170 c24 -33 31 -111 14 -162 -24 -72 -101 -87 -133 -25 -18
35 -20 145 -2 180 27 53 83 57 121 7z"/>
<path d="M3081 4319 c-72 -22 -132 -73 -169 -144 -37 -70 -38 -188 -3 -257 29
-57 71 -98 131 -130 38 -19 60 -23 140 -23 79 0 102 4 136 22 107 57 157 138
158 257 1 118 -51 203 -158 258 -47 25 -179 34 -235 17z m196 -83 c158 -74
156 -310 -4 -383 -222 -102 -420 171 -248 342 69 69 159 84 252 41z"/>
<path d="M3600 4046 l0 -287 38 3 37 3 3 83 3 82 69 2 c39 1 78 2 87 2 10 1
38 -29 70 -74 61 -87 76 -100 115 -100 16 0 28 5 28 13 0 6 -25 46 -55 87 -30
41 -55 79 -55 85 1 5 18 22 39 36 20 15 45 42 54 62 23 47 22 128 -2 175 -43
85 -92 104 -283 110 l-148 4 0 -286z m311 188 c45 -27 61 -59 56 -117 -7 -86
-65 -117 -217 -117 l-70 0 0 131 0 132 99 -5 c74 -4 107 -10 132 -24z"/>
<path d="M4185 4317 c-3 -7 -4 -134 -3 -282 l3 -270 38 -2 37 -1 0 284 0 284
-35 0 c-20 0 -38 -6 -40 -13z"/>
<path d="M4563 4310 c-53 -21 -124 -84 -148 -130 -21 -40 -34 -131 -26 -180
16 -102 83 -184 179 -221 82 -30 198 -23 274 17 l53 29 0 110 0 110 -37 3 -38
3 0 -94 c0 -93 0 -94 -27 -106 -48 -22 -138 -26 -186 -7 -94 36 -141 111 -135
216 5 88 36 137 109 174 80 40 194 31 250 -20 18 -17 20 -16 44 6 24 22 24 24
7 43 -57 63 -218 87 -319 47z"/>
<path d="M5057 4324 c-4 -4 -7 -133 -7 -286 l0 -279 38 3 37 3 0 280 0 280
-30 3 c-17 2 -34 0 -38 -4z"/>
<path d="M5300 4045 l0 -286 38 3 37 3 5 204 5 204 157 -195 c86 -107 163
-200 171 -206 8 -7 25 -11 38 -9 l24 4 0 279 0 279 -35 0 -35 0 -5 -205 -5
-204 -165 204 c-147 183 -169 205 -198 208 l-32 3 0 -286z"/>
<path d="M6117 4323 c-15 -25 -247 -545 -247 -553 0 -6 16 -10 35 -10 38 0 49
12 81 92 22 56 21 55 202 48 l124 -5 27 -65 c27 -64 28 -65 67 -65 29 0 38 4
36 15 -2 8 -58 135 -125 283 l-121 267 -37 0 c-21 0 -40 -3 -42 -7z m101 -216
c29 -67 52 -125 52 -129 0 -5 -52 -8 -115 -8 -63 0 -115 2 -115 4 0 2 21 50
46 107 25 57 50 114 55 127 5 12 12 22 16 22 5 0 32 -55 61 -123z"/>
<path d="M6540 4045 l0 -285 188 2 187 3 3 33 c3 25 0 32 -15 32 -10 1 -76 2
-148 3 l-130 2 -5 245 -5 245 -37 3 -38 3 0 -286z"/>
<path d="M5740 3340 c-86 -43 -244 -100 -367 -131 -424 -107 -887 -79 -1286
78 -49 19 -90 33 -92 31 -1 -1 -13 -23 -25 -47 -27 -55 -27 -55 108 -104 480
-174 996 -184 1468 -28 134 44 304 119 304 133 0 12 -38 86 -47 91 -5 3 -33
-8 -63 -23z"/>
</g>
</svg>
