<?xml version="1.0" standalone="no"?>
<!DOCTYPE svg PUBLIC "-//W3C//DTD SVG 20010904//EN"
 "http://www.w3.org/TR/2001/REC-SVG-20010904/DTD/svg10.dtd">
<svg version="1.0" xmlns="http://www.w3.org/2000/svg"
 width="1000.000000pt" height="554.000000pt" viewBox="0 0 1000.000000 554.000000"
 preserveAspectRatio="xMidYMid meet">

<g transform="translate(0.000000,554.000000) scale(0.100000,-0.100000)"
fill="#000000" stroke="none">
<path d="M4815 5484 c-16 -2 -73 -9 -125 -15 -295 -33 -573 -116 -865 -259
-720 -352 -1254 -1015 -1444 -1790 -25 -99 -36 -159 -67 -365 -4 -25 -13 -34
-61 -55 -72 -31 -161 -117 -197 -191 -54 -112 -54 -124 13 -755 38 -368 65
-585 75 -609 27 -63 73 -112 138 -144 79 -40 133 -40 296 -2 l122 28 75 -108
c438 -633 1089 -1042 1850 -1161 117 -18 183 -22 400 -22 278 -1 389 10 608
59 716 161 1338 608 1729 1241 196 318 332 705 378 1074 l12 95 56 25 c72 31
159 116 196 191 54 112 54 124 -13 756 -65 623 -66 627 -135 696 -88 88 -173
103 -352 63 -66 -15 -126 -30 -135 -32 -11 -3 -25 8 -40 33 -44 73 -187 259
-271 354 -350 391 -853 694 -1361 819 -220 54 -366 71 -622 75 -126 2 -243 1
-260 -1z m600 -143 c701 -107 1305 -473 1726 -1047 44 -59 79 -111 79 -115 0
-10 -17 -15 -293 -79 l-218 -50 -97 97 c-100 101 -249 219 -337 268 -47 27
-43 21 71 -96 115 -118 244 -271 244 -289 0 -4 -51 -20 -112 -34 -62 -14 -184
-43 -271 -63 -106 -25 -162 -34 -171 -28 -7 6 -52 40 -100 76 -208 157 -454
256 -720 289 -131 17 -370 7 -494 -19 -464 -101 -846 -396 -1053 -815 -27 -55
-51 -101 -53 -103 -11 -11 -541 -129 -544 -121 -10 25 62 301 121 461 13 37
23 67 21 67 -1 0 -23 -33 -48 -72 -63 -102 -129 -246 -166 -363 -17 -55 -35
-107 -39 -115 -5 -10 -90 -34 -252 -72 -134 -32 -250 -57 -256 -58 -18 0 -16
20 12 173 74 403 234 767 486 1104 99 132 377 410 512 510 405 301 832 462
1372 517 100 10 455 -4 580 -23z m-116 -1206 c177 -35 350 -107 510 -213 72
-47 82 -57 65 -64 -30 -12 -2085 -489 -2095 -486 -12 4 71 146 137 234 116
154 316 320 489 407 128 63 301 117 441 136 97 14 353 6 453 -14z m1583 -481
c63 -21 119 -72 151 -137 42 -87 41 -90 -60 -111 -49 -11 -93 -21 -99 -23 -6
-2 -14 7 -18 20 -3 13 -15 36 -27 50 -26 34 -86 37 -133 7 -42 -25 -58 -57
-54 -105 4 -52 32 -70 148 -95 161 -34 237 -85 283 -189 28 -63 28 -170 0
-231 -75 -165 -332 -247 -488 -156 -53 32 -102 86 -126 143 -35 81 -34 82 101
112 71 16 76 15 95 -34 25 -67 82 -91 152 -64 66 25 98 90 73 150 -16 38 -43
51 -158 78 -103 23 -154 46 -207 93 -61 53 -80 100 -80 198 0 75 3 91 27 131
81 137 275 213 420 163z m-720 -178 c112 -33 169 -121 176 -268 4 -83 3 -92
-27 -153 -17 -35 -45 -75 -61 -89 l-30 -24 100 -175 c55 -96 100 -179 100
-184 0 -9 -207 -60 -214 -52 -2 2 -41 73 -86 157 -60 110 -87 151 -97 147 -8
-3 -32 -8 -54 -11 l-39 -7 5 -51 c12 -112 23 -291 19 -296 -6 -5 -196 -51
-199 -48 -4 6 -76 980 -72 984 10 10 348 83 388 83 25 1 66 -5 91 -13z m-804
-193 c83 -195 352 -854 352 -862 0 -6 -10 -13 -22 -16 -13 -3 -58 -14 -101
-24 -89 -21 -79 -28 -117 79 -13 36 -25 67 -27 69 -1 2 -60 -9 -129 -25 -143
-33 -135 -24 -154 -147 -9 -54 -17 -78 -29 -81 -28 -9 -694 -164 -733 -171
-35 -7 -38 -5 -38 16 0 13 -16 235 -36 492 -20 258 -34 470 -32 471 6 4 543
127 555 126 13 0 26 -86 21 -145 l-3 -40 -175 -40 -175 -41 3 -99 c2 -55 5
-101 5 -102 1 -1 69 14 150 34 82 19 151 32 155 28 5 -5 21 -162 18 -172 -1
-1 -67 -17 -149 -36 -81 -19 -150 -37 -153 -40 -3 -3 -2 -55 3 -115 l8 -109
180 41 180 42 10 -64 10 -63 104 488 c57 268 106 493 108 498 2 8 116 41 184
54 4 0 16 -20 27 -46z m-1103 -225 c-2 -7 -51 -165 -109 -350 l-105 -338 13
-167 c8 -93 11 -171 7 -174 -8 -8 -193 -51 -198 -46 -2 2 -10 85 -18 184 l-14
180 -151 273 c-82 150 -150 276 -150 280 0 9 199 54 206 47 6 -6 150 -308 165
-346 5 -13 11 -22 14 -20 2 3 29 101 59 219 30 117 59 217 63 221 10 8 169 47
200 48 14 1 21 -4 18 -11z m-914 -223 c96 -34 159 -137 159 -259 0 -109 -27
-176 -164 -410 -42 -71 -74 -132 -71 -134 2 -2 69 10 149 29 80 18 148 30 151
27 3 -3 8 -43 12 -90 l6 -84 -269 -62 c-148 -35 -276 -65 -286 -68 -19 -6 -26
20 -30 106 -2 54 0 59 121 264 68 114 134 233 148 263 33 73 40 157 16 203
-16 32 -22 35 -62 35 -57 0 -81 -30 -90 -111 l-6 -59 -90 -21 c-49 -12 -93
-20 -97 -17 -14 7 -9 117 7 171 49 165 242 271 396 217z m4275 -426 c-11 -114
-57 -313 -105 -459 -89 -270 -220 -521 -393 -755 -102 -137 -378 -415 -511
-514 -448 -333 -936 -506 -1487 -527 -541 -21 -1080 132 -1535 437 -277 185
-530 435 -706 695 l-48 72 137 32 c75 18 191 45 257 60 l119 28 131 -126 c114
-111 255 -221 335 -262 14 -7 -29 43 -95 111 -110 113 -263 296 -254 303 2 2
126 31 276 66 l271 62 64 -53 c177 -147 404 -256 655 -311 83 -19 129 -22 303
-22 174 0 220 3 303 22 213 47 413 135 584 255 112 79 271 238 350 351 46 65
159 270 179 324 1 3 548 131 551 129 7 -8 -57 -268 -97 -387 -26 -80 -46 -147
-45 -148 6 -7 113 183 146 258 18 41 49 127 69 190 l37 115 239 56 c132 31
248 57 258 58 17 1 18 -4 12 -60z m-1326 -257 c0 -4 -20 -43 -45 -87 -130
-228 -356 -441 -593 -559 -90 -45 -248 -99 -362 -123 -119 -25 -401 -25 -520
0 -127 27 -284 82 -386 136 -114 60 -232 143 -213 150 28 9 2084 489 2102 490
9 1 17 -2 17 -7z"/>
<path d="M5056 5058 c-2 -7 -9 -98 -16 -203 -6 -104 -14 -211 -17 -237 l-6
-48 41 0 40 0 6 63 c3 34 10 105 14 157 l8 95 53 -160 c30 -88 55 -162 57
-163 1 -2 21 -6 43 -9 41 -6 41 -6 41 28 0 19 7 124 15 234 8 110 15 208 15
218 0 13 -8 17 -39 17 l-38 0 -7 -82 c-3 -46 -9 -117 -13 -158 l-6 -75 -54
160 c-30 88 -55 160 -56 161 -1 1 -19 4 -40 8 -27 5 -38 3 -41 -6z"/>
<path d="M4743 5042 c-7 -4 -22 -94 -37 -222 -15 -118 -29 -230 -32 -247 -5
-33 -4 -33 34 -33 45 0 52 10 52 71 0 43 3 45 67 52 l42 5 16 -49 c9 -27 20
-51 23 -53 4 -2 23 -1 44 3 l36 6 -86 238 -86 237 -31 0 c-16 0 -35 -4 -42 -8z
m77 -228 c12 -36 20 -67 18 -70 -3 -2 -19 -7 -37 -10 l-32 -7 6 44 c11 83 16
109 20 109 2 0 13 -30 25 -66z"/>
<path d="M5460 4992 c-5 -20 -8 -37 -7 -38 1 -1 20 -6 42 -11 50 -12 50 -2 -8
-240 l-44 -181 38 -10 c45 -11 34 -37 98 226 21 90 41 166 44 168 3 3 24 0 47
-6 23 -6 44 -9 47 -6 3 2 6 19 6 37 l2 32 -127 32 -128 33 -10 -36z"/>
<path d="M4309 4949 l-66 -21 70 -236 c39 -131 71 -238 72 -239 2 -5 75 21 75
26 0 3 -11 42 -25 86 -14 44 -25 85 -25 92 0 7 17 15 37 19 45 8 63 -10 88
-89 24 -73 34 -82 79 -67 33 11 35 13 22 33 -8 12 -21 45 -30 74 -20 59 -50
103 -73 103 -11 0 -13 6 -8 23 24 76 13 136 -34 181 -39 37 -95 41 -182 15z
m136 -89 c18 -35 20 -84 2 -98 -6 -6 -24 -13 -38 -17 -24 -6 -27 -3 -46 62
-23 75 -20 83 34 83 26 0 36 -6 48 -30z"/>
<path d="M5827 4832 c-4 -53 -7 -126 -7 -162 0 -54 -7 -80 -40 -154 -22 -49
-39 -90 -37 -91 18 -9 60 -25 66 -25 4 0 22 35 41 78 29 68 47 91 153 199 67
67 119 124 117 126 -3 2 -20 10 -39 17 l-35 14 -79 -85 -79 -84 6 50 c13 121
18 185 13 185 -2 0 -20 7 -39 15 l-35 14 -6 -97z"/>
<path d="M3948 4794 l-77 -37 112 -222 111 -223 33 16 c18 9 33 19 33 24 0 5
-18 45 -41 90 -39 78 -40 82 -23 95 11 8 32 13 49 11 24 -3 35 -13 63 -63 48
-87 52 -90 95 -69 39 19 45 29 24 37 -7 3 -28 32 -45 66 -33 61 -63 91 -93 91
-13 0 -15 9 -12 53 7 84 -42 151 -117 163 -27 4 -53 -4 -112 -32z m131 -68
c12 -13 24 -39 28 -59 5 -33 2 -38 -28 -56 l-34 -21 -34 67 c-31 63 -32 67
-15 80 27 20 58 16 83 -11z"/>
<path d="M3638 4599 c-16 -11 -28 -25 -28 -30 0 -15 193 -459 199 -459 3 0 19
10 34 23 l28 22 -21 49 c-11 27 -19 51 -17 53 3 2 22 17 43 32 l39 29 37 -34
c21 -19 41 -34 46 -34 4 0 20 11 36 24 l30 23 -195 161 c-107 89 -196 162
-199 162 -3 -1 -17 -10 -32 -21z m172 -193 l43 -39 -24 -18 c-13 -10 -27 -19
-30 -19 -3 0 -20 32 -37 70 -34 78 -31 78 48 6z"/>
<path d="M3407 4412 l-26 -28 98 -114 c54 -63 97 -117 96 -119 -2 -1 -61 31
-130 73 -69 42 -130 76 -134 76 -5 0 -16 -11 -24 -23 -15 -23 -12 -28 79 -145
51 -67 91 -122 89 -122 -3 0 -59 36 -125 80 -66 44 -123 80 -128 80 -16 0 -56
-50 -46 -59 13 -12 393 -251 409 -257 7 -3 22 8 33 23 l21 29 -90 118 c-49 65
-89 120 -87 121 2 2 61 -31 131 -72 l129 -76 26 26 26 26 -34 43 c-80 101
-281 348 -284 348 -1 0 -14 -12 -29 -28z"/>
<path d="M5961 3283 l-63 -15 7 -102 c3 -55 9 -114 12 -129 5 -28 6 -29 52
-22 82 12 129 39 151 87 11 24 20 56 20 71 0 63 -49 128 -95 126 -11 -1 -49
-8 -84 -16z"/>
<path d="M5270 3005 c0 -5 -13 -83 -28 -172 -19 -102 -25 -160 -18 -158 6 2
44 11 84 20 39 10 72 18 72 19 -3 16 -109 298 -110 291z"/>
<path d="M6511 1709 l-22 -30 56 -91 c31 -49 54 -92 52 -94 -2 -3 -49 13 -104
34 l-100 39 -27 -33 -27 -34 23 -9 c13 -4 83 -28 157 -52 120 -40 140 -50 201
-101 38 -32 72 -58 77 -57 4 0 18 13 30 28 l22 28 -69 57 c-62 51 -77 71 -150
201 -45 80 -85 145 -89 145 -4 0 -17 -14 -30 -31z"/>
<path d="M6225 1405 c-55 -47 -101 -89 -103 -94 -1 -4 9 -18 23 -31 l25 -24
28 27 c16 15 32 27 38 27 5 0 68 -70 139 -155 72 -84 133 -154 137 -154 4 -1
19 10 34 23 l28 23 -136 159 -136 159 35 36 34 36 -23 27 -23 26 -100 -85z"/>
<path d="M6053 1269 l-32 -20 53 -87 c91 -152 109 -185 95 -176 -8 4 -66 47
-129 94 -63 47 -120 89 -127 93 -14 9 -74 -24 -71 -39 7 -26 243 -414 253
-414 5 0 22 8 36 18 l26 17 -77 130 c-43 72 -77 131 -75 133 2 2 63 -41 136
-96 137 -103 137 -103 183 -69 18 13 12 24 -99 213 -65 109 -123 204 -129 211
-9 10 -18 8 -43 -8z"/>
<path d="M4136 1152 c-8 -26 -97 -435 -99 -456 -1 -13 8 -23 31 -33 l32 -13
81 125 c45 69 83 124 85 122 2 -2 -7 -64 -21 -138 -14 -74 -25 -139 -25 -145
0 -10 41 -34 60 -34 14 0 263 421 254 429 -5 4 -21 12 -36 19 -27 11 -27 11
-103 -123 -42 -74 -77 -135 -79 -135 -4 0 0 24 30 174 13 65 24 122 24 126 0
6 -44 30 -55 30 -2 0 -40 -59 -86 -130 -45 -72 -83 -129 -85 -127 -2 1 13 65
32 141 19 77 33 144 30 151 -2 7 -18 17 -35 23 -25 9 -31 8 -35 -6z"/>
<path d="M5650 1069 c-13 -6 -26 -12 -28 -14 -4 -4 47 -469 53 -492 3 -9 13
-9 41 0 l36 11 -6 57 -6 57 47 16 c26 9 48 16 49 16 2 0 17 -20 33 -44 30 -43
31 -44 66 -33 19 6 35 14 35 18 0 18 -271 419 -282 418 -7 0 -24 -5 -38 -10z
m140 -276 c0 -5 -13 -14 -29 -20 -33 -12 -32 -13 -46 102 l-6 50 40 -62 c23
-34 41 -66 41 -70z"/>
<path d="M4558 767 c-54 -124 -98 -230 -98 -236 0 -6 8 -11 18 -11 9 0 26 -3
37 -6 17 -4 24 4 40 46 20 51 21 52 55 46 19 -3 43 -6 53 -6 14 0 17 -9 17
-47 0 -61 6 -70 53 -78 l38 -7 -6 63 c-3 35 -10 149 -16 254 -6 104 -12 191
-14 193 -2 2 -21 6 -42 9 l-38 5 -97 -225z m121 -60 c1 -38 1 -39 -31 -32 -18
4 -34 9 -36 10 -2 1 10 33 25 71 l27 69 8 -40 c4 -22 7 -57 7 -78z"/>
<path d="M5300 980 c-98 -20 -92 9 -49 -232 21 -117 41 -227 44 -244 5 -31 7
-31 41 -24 20 5 37 10 39 12 2 1 -3 35 -11 73 -7 39 -13 82 -14 98 0 25 3 27
40 27 33 0 42 -4 53 -27 8 -16 17 -49 21 -74 10 -68 24 -82 69 -74 22 5 36 12
33 19 -5 13 -23 74 -37 128 -5 20 -22 47 -38 60 -26 23 -27 25 -12 47 19 30
18 108 -3 149 -30 59 -89 79 -176 62z m94 -89 c23 -25 31 -82 14 -103 -7 -10
-27 -20 -44 -24 -35 -7 -37 -3 -50 94 l-7 52 35 0 c21 0 41 -7 52 -19z"/>
<path d="M4890 711 l0 -251 40 0 40 0 0 100 0 100 34 0 c47 0 66 -29 66 -100
0 -91 5 -100 57 -100 32 0 42 3 37 12 -4 6 -11 49 -14 95 -5 67 -11 88 -29
107 l-23 24 21 29 c31 41 37 95 17 147 -24 63 -54 79 -158 84 l-88 4 0 -251z
m166 144 c11 -18 15 -37 11 -62 -8 -45 -15 -52 -60 -60 l-37 -6 0 77 0 76 35
0 c26 0 39 -6 51 -25z"/>
</g>
</svg>
