<?xml version="1.0" standalone="no"?>
<!DOCTYPE svg PUBLIC "-//W3C//DTD SVG 20010904//EN"
 "http://www.w3.org/TR/2001/REC-SVG-20010904/DTD/svg10.dtd">
<svg version="1.0" xmlns="http://www.w3.org/2000/svg"
 width="736.000000pt" height="736.000000pt" viewBox="0 0 736.000000 736.000000"
 preserveAspectRatio="xMidYMid meet">

<g transform="translate(0.000000,736.000000) scale(0.100000,-0.100000)"
fill="#000000" stroke="none">
<path d="M4081 5284 c-19 -41 -22 -44 -42 -34 -11 7 -22 10 -24 8 -1 -2 -103
-217 -225 -478 -122 -261 -229 -488 -237 -503 l-14 -28 136 -64 c75 -36 140
-65 145 -65 5 0 19 24 33 53 l23 52 -23 45 c-89 173 -17 392 159 479 34 17 71
31 83 31 12 0 29 6 38 13 9 6 50 84 91 172 69 149 73 161 55 169 -22 11 -23
22 -4 56 28 49 21 55 -142 126 l-32 14 -20 -46z"/>
<path d="M4109 4704 c-50 -9 -133 -68 -166 -117 -83 -124 -58 -282 60 -376 81
-63 194 -74 290 -27 101 49 151 131 151 246 0 64 -4 83 -29 128 -32 58 -67 92
-126 123 -39 19 -131 31 -180 23z m129 -154 c70 -43 92 -128 49 -191 -57 -86
-178 -88 -233 -4 -77 118 64 268 184 195z"/>
<path d="M4510 4317 c0 -7 -16 -40 -35 -72 l-36 -59 30 -66 c85 -191 80 -394
-16 -590 -38 -79 -60 -109 -132 -181 -139 -138 -292 -202 -486 -202 -61 0
-125 6 -165 16 -99 26 -222 91 -289 152 l-59 55 -215 0 -216 0 23 -67 c92
-271 298 -484 569 -592 95 -38 107 -38 130 -3 34 50 126 102 181 102 15 0 9
-6 -19 -19 -72 -33 -115 -102 -115 -184 l0 -44 -77 -38 c-106 -52 -216 -161
-266 -265 -35 -71 -67 -173 -67 -212 0 -17 30 -18 606 -18 l607 0 -6 48 c-19
160 -134 332 -282 421 l-56 34 -42 -40 c-50 -48 -70 -59 -128 -72 -35 -7 -40
-7 -25 2 66 41 83 57 103 92 16 28 23 57 23 96 l0 57 37 7 c20 3 70 20 112 37
271 107 483 332 571 606 40 125 53 224 47 357 -12 228 -92 424 -245 602 -46
54 -62 64 -62 40z"/>
<path d="M3499 4203 c-5 -14 -12 -30 -15 -35 -5 -8 268 -144 302 -150 9 -2 21
10 29 30 l14 33 -42 18 c-23 11 -95 44 -160 75 l-118 56 -10 -27z"/>
<path d="M3369 4094 c-17 -36 -29 -68 -27 -70 8 -7 432 -204 440 -204 8 0 71
130 66 135 -6 5 -438 205 -444 205 -3 0 -19 -30 -35 -66z"/>
<path d="M2591 3579 c-53 -21 -67 -80 -28 -124 l22 -26 519 0 520 1 23 22 c42
39 26 106 -31 128 -36 13 -991 13 -1025 -1z"/>
</g>
</svg>
