<?xml version="1.0" standalone="no"?>
<!DOCTYPE svg PUBLIC "-//W3C//DTD SVG 20010904//EN"
 "http://www.w3.org/TR/2001/REC-SVG-20010904/DTD/svg10.dtd">
<svg version="1.0" xmlns="http://www.w3.org/2000/svg"
 width="314.000000pt" height="228.000000pt" viewBox="0 0 314.000000 228.000000"
 preserveAspectRatio="xMidYMid meet">

<g transform="translate(0.000000,228.000000) scale(0.100000,-0.100000)"
fill="#000000" stroke="none">
<path d="M1252 1952 c-100 -126 -267 -434 -366 -677 l-45 -110 -1 333 c0 182
-3 332 -6 332 -4 0 -60 -17 -125 -37 l-119 -36 0 -198 0 -197 -57 -6 c-32 -4
-79 -10 -105 -13 l-48 -6 0 183 c0 150 -2 181 -14 177 -11 -4 -82 -26 -179
-53 -16 -5 -17 -32 -15 -431 l3 -426 103 -27 102 -26 0 198 0 198 38 0 c20 0
67 -3 105 -7 l67 -6 0 -218 0 -217 33 -11 c46 -14 193 -51 206 -51 7 0 11 27
11 73 l0 72 63 -117 c34 -65 65 -114 68 -110 4 4 33 70 64 147 31 77 59 143
63 147 4 4 81 -4 172 -17 90 -13 165 -23 167 -22 5 5 -90 154 -108 170 -15 12
-39 17 -85 17 -34 0 -66 5 -69 10 -8 12 64 170 77 170 24 0 260 -395 442 -740
54 -102 101 -188 104 -192 6 -5 187 297 351 584 l34 60 -52 75 -51 75 0 263 0
263 -27 6 c-16 3 -66 10 -113 16 -47 6 -95 13 -107 15 -22 5 -22 2 -25 -91
l-3 -97 -115 144 c-129 161 -354 415 -386 436 -20 13 -24 11 -52 -25z m113
-142 c142 -158 397 -487 596 -770 53 -74 99 -141 103 -147 6 -10 -196 -373
-259 -466 -11 -15 -29 13 -142 220 -147 270 -277 485 -355 588 -65 86 -90 93
-137 40 -33 -37 -122 -217 -202 -403 l-44 -104 -42 91 -43 90 41 118 c57 163
148 375 224 520 68 130 176 304 187 300 3 -1 36 -36 73 -77z"/>
<path d="M1810 1797 l0 -104 90 -17 c49 -9 110 -19 135 -23 l45 -6 0 95 0 95
-122 28 c-68 15 -129 30 -135 32 -10 4 -13 -20 -13 -100z"/>
<path d="M2299 1507 l162 -316 -177 -306 c-97 -168 -175 -307 -173 -309 2 -2
75 12 161 32 l157 35 76 166 c43 91 80 169 84 174 4 4 37 -55 73 -132 l65
-139 119 27 c66 15 118 32 117 37 -1 5 -54 102 -118 216 l-116 208 140 205
c85 125 135 208 128 210 -47 17 -223 53 -228 47 -4 -4 -40 -63 -79 -132 -39
-69 -75 -129 -79 -133 -4 -4 -48 75 -98 175 l-90 183 -119 28 c-65 15 -130 30
-143 34 -21 5 -3 -33 138 -310z"/>
<path d="M2899 1215 c-34 -18 -52 -66 -38 -102 14 -36 38 -52 80 -53 45 0 79
33 79 79 0 45 -14 67 -51 80 -39 13 -38 14 -70 -4z m88 -27 c13 -12 23 -32 23
-45 0 -30 -42 -73 -71 -73 -32 0 -69 38 -69 72 0 60 71 89 117 46z"/>
<path d="M2911 1138 c1 -29 3 -44 6 -33 9 35 22 40 32 12 15 -40 22 -33 19 21
-3 43 -5 47 -30 50 -28 3 -28 2 -27 -50z m44 32 c3 -6 -1 -13 -10 -16 -19 -8
-30 0 -20 15 8 14 22 14 30 1z"/>
</g>
</svg>
