<?xml version="1.0" encoding="UTF-8"?> <svg xmlns="http://www.w3.org/2000/svg" xmlns:xlink="http://www.w3.org/1999/xlink" id="svg" version="1.1" width="400" height="106.5076999503229" viewBox="0, 0, 400,106.5076999503229"><g id="svgg"><path id="path0" d="M210.250 0.249 C 208.707 0.517,207.453 0.843,207.333 1.005 C 207.287 1.067,206.706 1.285,206.042 1.490 C 205.377 1.694,204.833 1.913,204.833 1.977 C 204.833 2.041,204.452 2.241,203.987 2.422 C 203.521 2.602,203.015 2.862,202.862 3.000 C 202.709 3.137,202.298 3.400,201.949 3.583 C 201.600 3.767,201.156 4.085,200.962 4.292 C 200.768 4.498,200.531 4.667,200.436 4.667 C 200.254 4.667,200.127 4.780,198.250 6.627 C 196.599 8.252,194.668 10.755,194.667 11.271 C 194.667 11.375,194.553 11.553,194.415 11.668 C 194.136 11.900,193.500 13.245,193.500 13.605 C 193.500 13.730,193.431 13.833,193.347 13.833 C 193.208 13.833,192.679 15.364,192.397 16.583 C 192.334 16.858,192.235 17.121,192.178 17.167 C 192.120 17.212,191.897 18.000,191.682 18.917 C 191.467 19.833,191.229 20.661,191.154 20.756 C 191.079 20.852,190.849 21.639,190.643 22.506 C 190.437 23.374,190.218 24.121,190.156 24.167 C 190.094 24.212,189.877 24.962,189.674 25.833 C 189.471 26.704,189.245 27.492,189.173 27.583 C 189.101 27.675,188.866 28.500,188.651 29.417 C 188.436 30.333,188.197 31.128,188.121 31.182 C 188.045 31.236,187.998 31.349,188.018 31.432 C 188.037 31.515,188.007 31.696,187.950 31.833 C 187.808 32.180,187.333 34.090,187.333 34.317 C 187.333 34.452,189.657 34.491,195.791 34.460 L 204.249 34.417 204.403 33.667 C 204.488 33.254,204.608 32.879,204.669 32.833 C 204.731 32.787,204.954 32.037,205.164 31.167 C 205.374 30.296,205.603 29.508,205.672 29.417 C 205.741 29.325,205.966 28.537,206.172 27.667 C 206.379 26.796,206.605 26.008,206.676 25.917 C 206.747 25.825,207.001 24.925,207.242 23.917 C 207.482 22.908,207.789 21.847,207.923 21.558 C 208.057 21.269,208.167 20.953,208.167 20.855 C 208.167 19.725,210.509 17.217,212.000 16.752 C 212.229 16.680,212.468 16.542,212.531 16.444 C 212.791 16.037,215.736 16.102,217.116 16.545 C 217.832 16.774,218.867 17.060,219.417 17.179 C 219.967 17.298,220.454 17.446,220.500 17.507 C 220.546 17.569,221.483 17.832,222.583 18.092 C 223.683 18.352,224.621 18.615,224.667 18.677 C 224.713 18.739,225.463 18.956,226.333 19.159 C 227.204 19.363,227.992 19.588,228.083 19.660 C 228.175 19.732,229.000 19.967,229.917 20.182 C 230.833 20.397,231.621 20.620,231.667 20.676 C 231.749 20.777,234.507 21.500,234.809 21.500 C 234.894 21.500,235.085 20.963,235.233 20.307 C 235.381 19.651,235.567 19.032,235.647 18.932 C 235.726 18.832,235.967 18.000,236.182 17.083 C 236.397 16.167,236.623 15.379,236.683 15.333 C 236.744 15.287,236.955 14.575,237.153 13.750 C 237.350 12.925,237.583 12.121,237.670 11.964 C 237.757 11.807,238.026 10.870,238.267 9.881 C 238.508 8.892,238.762 8.008,238.831 7.917 C 238.900 7.825,239.057 7.351,239.179 6.864 C 239.446 5.804,239.446 5.804,237.821 5.498 C 237.186 5.378,236.667 5.225,236.667 5.159 C 236.667 5.092,235.935 4.868,235.042 4.660 C 234.148 4.452,233.379 4.234,233.333 4.175 C 233.287 4.117,232.500 3.890,231.583 3.671 C 230.667 3.453,229.842 3.219,229.750 3.153 C 229.658 3.086,228.721 2.822,227.667 2.565 C 226.612 2.309,225.713 2.051,225.667 1.992 C 225.621 1.933,224.833 1.712,223.917 1.500 C 223.000 1.288,222.211 1.057,222.164 0.986 C 221.680 0.258,213.204 -0.266,210.250 0.249 M11.660 38.703 C 11.546 39.187,11.401 39.621,11.338 39.667 C 11.276 39.712,11.045 40.462,10.826 41.333 C 10.607 42.204,10.383 42.954,10.329 43.000 C 10.275 43.046,10.034 43.796,9.794 44.667 C 8.662 48.773,8.464 49.450,8.257 49.917 C 8.135 50.192,7.872 51.091,7.672 51.915 C 7.471 52.739,7.248 53.489,7.176 53.582 C 7.103 53.674,6.870 54.462,6.657 55.333 C 6.445 56.204,6.223 56.954,6.164 57.000 C 6.106 57.046,5.879 57.796,5.660 58.667 C 5.441 59.538,5.214 60.288,5.156 60.333 C 5.098 60.379,4.879 61.092,4.669 61.917 C 4.460 62.742,4.232 63.492,4.163 63.583 C 4.095 63.675,3.875 64.420,3.676 65.239 C 3.476 66.058,3.247 66.850,3.167 66.999 C 3.088 67.148,2.819 68.052,2.571 69.010 C 2.322 69.967,2.063 70.825,1.995 70.917 C 1.926 71.008,1.703 71.754,1.500 72.574 C 1.296 73.394,1.062 74.182,0.981 74.324 C 0.771 74.692,0.000 77.791,0.000 78.268 L 0.000 78.667 7.635 78.667 C 16.368 78.667,15.664 78.806,16.086 77.000 C 16.247 76.313,16.437 75.675,16.509 75.583 C 16.580 75.492,16.797 74.779,16.991 74.000 C 17.185 73.221,17.421 72.430,17.515 72.243 C 17.609 72.056,17.818 71.381,17.979 70.743 L 18.271 69.583 28.261 69.543 C 33.995 69.521,38.392 69.437,38.583 69.348 C 38.767 69.263,39.758 69.151,40.787 69.101 C 42.751 69.004,46.044 68.423,46.139 68.156 C 46.169 68.070,46.294 68.000,46.417 68.000 C 46.694 68.000,48.212 67.356,48.330 67.189 C 48.378 67.121,48.700 66.893,49.047 66.683 C 49.846 66.197,51.106 64.907,51.375 64.299 C 51.489 64.043,51.633 63.833,51.696 63.833 C 51.890 63.833,53.132 61.136,53.346 60.250 C 53.457 59.792,53.607 59.340,53.680 59.246 C 53.753 59.152,54.017 58.252,54.267 57.246 C 54.517 56.240,54.773 55.379,54.835 55.333 C 54.897 55.288,55.121 54.538,55.333 53.667 C 55.545 52.796,55.768 52.046,55.827 52.000 C 55.887 51.954,56.131 51.204,56.369 50.333 C 56.607 49.462,56.967 48.188,57.169 47.500 C 58.048 44.510,57.793 41.422,56.571 40.250 C 55.423 39.149,55.347 39.110,52.917 38.380 L 51.417 37.930 31.643 37.876 L 11.869 37.822 11.660 38.703 M219.500 37.948 C 218.996 37.981,218.471 38.054,218.333 38.109 C 218.196 38.164,217.933 38.231,217.750 38.258 C 215.555 38.578,212.000 39.868,212.000 40.344 C 212.000 40.430,211.888 40.500,211.750 40.500 C 211.408 40.500,209.427 42.517,209.147 43.152 C 209.021 43.435,208.873 43.667,208.818 43.667 C 208.763 43.667,208.582 43.985,208.416 44.375 C 208.250 44.765,207.944 45.461,207.736 45.923 C 207.527 46.385,207.237 47.280,207.091 47.911 C 206.944 48.543,206.760 49.140,206.681 49.238 C 206.602 49.336,206.370 50.092,206.167 50.917 C 205.963 51.742,205.737 52.492,205.664 52.583 C 205.591 52.675,205.357 53.462,205.145 54.333 C 204.933 55.204,204.710 55.954,204.649 56.000 C 204.589 56.046,204.373 56.758,204.168 57.583 C 203.964 58.408,203.740 59.158,203.672 59.250 C 203.177 59.915,202.828 63.806,203.148 65.080 C 203.781 67.592,206.818 69.164,211.042 69.166 C 211.680 69.166,212.167 69.239,212.167 69.333 C 212.167 69.541,238.939 69.566,239.067 69.359 C 239.115 69.282,239.975 69.171,240.977 69.114 C 243.072 68.994,245.102 68.613,246.124 68.148 C 246.514 67.970,247.023 67.753,247.256 67.664 C 247.952 67.400,249.573 66.235,250.096 65.625 C 251.216 64.317,251.366 64.113,251.708 63.447 C 251.904 63.064,252.119 62.712,252.184 62.667 C 252.249 62.621,252.463 62.096,252.660 61.500 C 252.856 60.904,253.116 60.192,253.238 59.917 C 253.359 59.642,253.629 58.704,253.838 57.833 C 254.047 56.962,254.270 56.212,254.332 56.167 C 254.394 56.121,254.612 55.410,254.817 54.587 C 255.021 53.764,255.249 53.014,255.322 52.920 C 255.396 52.827,255.630 52.038,255.843 51.167 C 256.055 50.296,256.278 49.546,256.339 49.500 C 256.399 49.454,256.616 48.704,256.821 47.833 C 257.027 46.962,257.237 46.137,257.289 46.000 C 257.487 45.477,257.515 45.206,257.530 43.691 C 257.539 42.825,257.472 42.083,257.380 42.024 C 257.289 41.965,257.125 41.640,257.015 41.303 C 256.804 40.655,255.673 39.500,255.250 39.500 C 255.112 39.500,255.000 39.431,255.000 39.347 C 255.000 39.111,252.703 38.421,251.408 38.268 C 251.220 38.246,250.958 38.158,250.825 38.072 C 250.596 37.925,221.561 37.809,219.500 37.948 M343.471 40.625 C 347.626 40.650,354.376 40.650,358.471 40.625 C 362.566 40.600,359.167 40.580,350.917 40.580 C 342.667 40.580,339.316 40.600,343.471 40.625 M40.149 48.734 C 40.496 49.048,40.670 50.333,40.366 50.333 C 40.293 50.333,40.058 51.065,39.845 51.958 C 39.632 52.852,39.398 53.659,39.326 53.751 C 39.253 53.843,39.010 54.642,38.785 55.526 C 38.561 56.410,38.294 57.235,38.193 57.359 C 38.091 57.482,37.825 57.808,37.602 58.083 L 37.196 58.583 29.348 58.631 C 24.007 58.664,21.500 58.624,21.500 58.506 C 21.500 58.411,21.560 58.333,21.634 58.333 C 21.707 58.333,21.942 57.602,22.155 56.708 C 22.368 55.815,22.603 55.006,22.677 54.912 C 22.751 54.818,23.017 53.918,23.267 52.912 C 23.517 51.906,23.774 51.046,23.839 51.000 C 23.903 50.954,24.092 50.333,24.259 49.620 L 24.563 48.324 32.181 48.370 C 39.402 48.414,39.817 48.433,40.149 48.734 M240.082 48.750 C 240.395 49.147,240.320 50.369,239.932 51.208 C 239.794 51.506,239.527 52.350,239.338 53.083 C 239.150 53.817,238.888 54.717,238.757 55.083 C 238.626 55.450,238.357 56.285,238.159 56.939 C 237.879 57.864,237.700 58.180,237.358 58.356 C 236.723 58.683,221.119 58.776,220.500 58.457 C 220.078 58.239,219.841 57.540,220.126 57.352 C 220.211 57.296,220.454 56.538,220.664 55.667 C 220.874 54.796,221.105 54.008,221.176 53.917 C 221.247 53.825,221.466 53.112,221.664 52.333 C 222.302 49.813,222.897 48.925,224.250 48.473 C 225.204 48.154,239.814 48.410,240.082 48.750 M110.127 50.118 C 110.334 50.158,110.634 50.156,110.794 50.115 C 110.953 50.073,110.783 50.040,110.417 50.042 C 110.050 50.044,109.920 50.078,110.127 50.118 M112.294 50.118 C 112.501 50.158,112.801 50.156,112.960 50.115 C 113.120 50.073,112.950 50.040,112.583 50.042 C 112.217 50.044,112.086 50.078,112.294 50.118 M113.792 50.118 C 113.998 50.157,114.335 50.157,114.542 50.118 C 114.748 50.078,114.579 50.045,114.167 50.045 C 113.754 50.045,113.585 50.078,113.792 50.118 M282.958 50.458 C 285.456 50.484,289.544 50.484,292.042 50.458 C 294.540 50.432,292.496 50.411,287.500 50.411 C 282.504 50.411,280.460 50.432,282.958 50.458 M255.033 69.042 C 255.082 69.329,290.177 69.545,290.462 69.260 C 290.512 69.210,282.615 69.170,272.912 69.170 C 258.911 69.170,255.242 69.127,255.127 68.960 C 255.023 68.810,254.997 68.833,255.033 69.042 M54.773 69.250 C 54.815 69.359,57.540 69.389,62.710 69.336 C 70.477 69.256,69.816 69.208,59.813 69.126 C 56.461 69.098,54.731 69.141,54.773 69.250 M359.875 69.115 C 360.035 69.157,360.298 69.157,360.458 69.115 C 360.619 69.073,360.488 69.039,360.167 69.039 C 359.846 69.039,359.715 69.073,359.875 69.115 M108.542 69.264 C 108.685 69.407,142.667 69.433,142.667 69.290 C 142.667 69.221,134.968 69.166,125.558 69.168 C 116.149 69.171,108.492 69.214,108.542 69.264 M147.333 69.292 C 147.333 69.434,181.320 69.402,181.463 69.259 C 181.514 69.208,173.856 69.167,164.444 69.167 C 155.033 69.167,147.333 69.223,147.333 69.292 M254.777 74.458 C 254.539 75.352,254.116 76.946,253.835 78.000 C 253.555 79.054,253.263 80.029,253.188 80.167 C 253.112 80.304,252.872 81.167,252.655 82.083 C 252.438 83.000,252.210 83.787,252.149 83.833 C 252.088 83.879,251.918 84.390,251.770 84.969 C 250.908 88.346,248.390 90.250,244.786 90.250 C 243.585 90.250,242.775 90.181,242.702 90.073 C 242.593 89.911,241.357 89.550,237.000 88.411 C 236.129 88.183,235.299 87.931,235.156 87.850 C 235.013 87.769,234.188 87.534,233.323 87.328 C 232.458 87.121,231.674 86.894,231.581 86.822 C 231.487 86.749,230.700 86.524,229.831 86.321 C 228.961 86.118,228.175 85.898,228.083 85.832 C 227.992 85.766,227.242 85.547,226.417 85.346 C 225.592 85.145,224.796 84.916,224.650 84.838 C 224.243 84.620,222.156 84.122,222.059 84.219 C 222.012 84.266,221.828 84.892,221.651 85.611 C 221.474 86.329,221.267 87.029,221.191 87.167 C 221.115 87.304,220.881 88.092,220.671 88.917 C 220.460 89.742,220.233 90.492,220.165 90.583 C 220.098 90.675,219.866 91.500,219.651 92.417 C 219.436 93.333,219.195 94.129,219.116 94.185 C 219.036 94.241,218.976 94.334,218.981 94.392 C 218.987 94.449,218.957 94.591,218.915 94.707 C 218.873 94.822,218.692 95.517,218.512 96.250 C 218.332 96.983,218.075 97.883,217.942 98.250 C 217.457 99.583,217.489 99.701,218.417 99.984 C 218.875 100.124,219.287 100.285,219.333 100.340 C 219.379 100.396,220.110 100.619,220.958 100.836 C 221.806 101.052,222.500 101.279,222.500 101.341 C 222.500 101.402,223.156 101.627,223.958 101.840 C 224.760 102.053,225.454 102.280,225.500 102.345 C 225.546 102.409,226.183 102.625,226.917 102.825 C 227.650 103.025,228.475 103.291,228.750 103.415 C 229.025 103.539,229.887 103.797,230.667 103.989 C 231.446 104.180,232.208 104.408,232.359 104.494 C 232.676 104.673,235.327 105.333,235.731 105.333 C 235.879 105.333,236.000 105.395,236.000 105.471 C 236.000 105.604,238.105 105.978,240.965 106.353 C 244.135 106.769,252.043 106.188,252.500 105.506 C 252.546 105.438,252.883 105.288,253.250 105.174 C 254.550 104.769,257.710 103.111,258.583 102.375 C 258.675 102.298,259.009 102.051,259.325 101.826 C 259.642 101.601,260.637 100.667,261.537 99.750 C 263.629 97.619,263.693 97.545,264.168 96.750 C 264.387 96.383,264.613 96.046,264.670 96.000 C 264.798 95.898,266.012 93.556,266.519 92.432 C 266.925 91.532,267.466 89.808,268.142 87.250 C 268.385 86.333,268.629 85.546,268.684 85.500 C 268.740 85.454,269.000 84.517,269.264 83.417 C 269.527 82.317,269.789 81.379,269.845 81.333 C 269.902 81.287,270.120 80.537,270.331 79.667 C 270.541 78.796,270.768 78.008,270.835 77.917 C 270.903 77.825,271.134 77.000,271.349 76.083 C 271.564 75.167,271.795 74.377,271.862 74.328 C 271.929 74.280,272.035 73.924,272.097 73.537 L 272.209 72.833 263.709 72.833 L 255.208 72.833 254.777 74.458 M325.083 77.500 C 325.149 77.607,327.693 77.667,332.167 77.667 C 336.640 77.667,339.184 77.607,339.250 77.500 C 339.318 77.390,336.915 77.333,332.167 77.333 C 327.418 77.333,325.015 77.390,325.083 77.500 " stroke="none" fill="#eb8c1d" fill-rule="evenodd"></path><path id="path1" d="M244.755 8.042 C 244.631 8.421,243.985 10.727,243.575 12.250 C 243.354 13.075,243.108 13.862,243.030 14.000 C 242.952 14.137,242.714 14.963,242.501 15.833 C 242.289 16.704,242.067 17.454,242.009 17.500 C 241.951 17.546,241.766 18.183,241.600 18.917 C 241.433 19.650,241.197 20.475,241.075 20.750 C 240.824 21.315,240.451 22.680,240.531 22.738 C 240.560 22.759,241.258 22.949,242.083 23.160 C 242.908 23.371,243.658 23.596,243.750 23.660 C 243.842 23.725,244.535 23.915,245.292 24.082 C 246.048 24.250,246.667 24.435,246.667 24.492 C 246.667 24.549,246.798 24.605,246.958 24.618 C 247.370 24.649,250.365 25.477,250.667 25.642 C 250.804 25.718,251.629 25.952,252.500 26.163 C 253.371 26.374,254.158 26.601,254.250 26.667 C 254.342 26.733,255.129 26.958,256.000 27.167 C 256.871 27.376,257.658 27.601,257.750 27.667 C 257.842 27.733,258.629 27.959,259.500 28.169 C 260.371 28.380,261.138 28.634,261.206 28.734 C 261.273 28.835,261.329 28.859,261.331 28.789 C 261.337 28.465,263.179 29.643,264.016 30.506 C 264.891 31.409,265.667 32.692,265.667 33.238 C 265.667 33.371,265.742 33.527,265.833 33.583 C 265.925 33.640,266.000 33.832,266.000 34.010 C 266.000 34.325,266.190 34.333,273.815 34.333 L 281.630 34.333 281.706 33.708 C 281.748 33.365,281.734 33.046,281.675 33.000 C 281.616 32.954,281.474 32.244,281.357 31.422 C 281.241 30.599,281.088 29.849,281.016 29.755 C 280.944 29.661,280.755 29.096,280.595 28.500 C 280.435 27.904,279.978 26.742,279.579 25.917 C 278.905 24.521,278.487 23.810,277.276 21.999 C 276.592 20.976,273.470 17.833,272.586 17.276 C 272.172 17.016,271.833 16.735,271.833 16.651 C 271.833 16.568,271.750 16.500,271.649 16.500 C 271.548 16.500,271.154 16.293,270.774 16.039 C 269.242 15.017,266.082 13.736,263.500 13.090 C 262.904 12.941,262.304 12.774,262.167 12.718 C 261.812 12.574,261.764 12.560,259.917 12.089 C 259.000 11.855,258.137 11.601,258.000 11.525 C 257.862 11.450,257.037 11.215,256.167 11.004 C 255.296 10.793,254.508 10.566,254.417 10.500 C 254.325 10.434,253.537 10.209,252.667 10.000 C 251.796 9.791,251.008 9.564,250.917 9.496 C 250.825 9.428,249.925 9.169,248.917 8.919 C 247.908 8.670,247.008 8.407,246.917 8.336 C 246.780 8.229,245.193 7.833,244.903 7.833 C 244.859 7.833,244.792 7.927,244.755 8.042 M159.778 28.944 C 159.717 29.006,159.667 29.163,159.667 29.294 C 159.667 29.426,159.558 29.769,159.425 30.058 C 159.291 30.347,159.023 31.221,158.827 32.000 C 158.632 32.779,158.413 33.492,158.342 33.583 C 158.271 33.675,158.079 34.313,157.915 35.000 C 157.752 35.688,157.543 36.438,157.450 36.667 C 157.243 37.180,157.259 37.128,156.827 38.746 C 156.632 39.478,156.425 40.153,156.366 40.246 C 156.307 40.340,156.243 40.492,156.223 40.583 C 156.072 41.282,155.299 43.983,155.174 44.250 C 155.088 44.433,154.863 45.183,154.672 45.917 C 154.482 46.650,154.256 47.400,154.168 47.583 C 154.081 47.767,153.852 48.554,153.658 49.333 C 153.464 50.112,153.247 50.825,153.176 50.917 C 153.105 51.008,152.877 51.778,152.671 52.627 C 152.464 53.476,152.227 54.212,152.145 54.264 C 152.062 54.315,152.040 54.429,152.095 54.519 C 152.150 54.608,152.126 54.772,152.042 54.882 C 151.957 54.993,151.753 55.608,151.587 56.250 C 151.421 56.892,151.242 57.492,151.189 57.583 C 151.136 57.675,151.076 57.825,151.057 57.917 C 150.905 58.615,150.132 61.316,150.007 61.583 C 149.922 61.767,149.696 62.517,149.506 63.250 C 149.316 63.983,149.090 64.733,149.005 64.917 C 148.919 65.100,148.685 65.887,148.484 66.667 C 148.284 67.446,148.066 68.158,148.001 68.250 C 147.935 68.342,147.840 68.588,147.788 68.797 L 147.695 69.177 165.389 69.089 C 182.464 69.005,185.965 68.955,186.500 68.789 C 186.637 68.747,187.534 68.588,188.492 68.437 C 189.450 68.285,190.275 68.104,190.325 68.033 C 190.375 67.962,190.851 67.759,191.383 67.581 C 194.154 66.656,196.655 63.805,197.740 60.333 C 197.897 59.829,198.069 59.304,198.121 59.167 C 198.174 59.029,198.238 58.842,198.263 58.750 C 198.288 58.658,198.543 57.796,198.829 56.833 C 199.115 55.871,199.537 54.408,199.767 53.583 C 199.997 52.758,200.254 51.933,200.339 51.750 C 200.424 51.567,200.649 50.817,200.839 50.083 C 201.029 49.350,201.253 48.600,201.337 48.417 C 201.553 47.942,202.000 46.101,202.000 45.684 C 202.000 45.491,202.056 45.333,202.125 45.333 C 202.194 45.333,202.250 44.658,202.250 43.833 C 202.250 43.008,202.203 42.333,202.146 42.333 C 202.089 42.333,201.997 42.111,201.943 41.840 C 201.655 40.402,198.825 38.667,196.768 38.667 C 196.529 38.667,196.333 38.599,196.333 38.517 C 196.333 38.434,196.052 38.362,195.708 38.355 C 194.216 38.328,191.833 38.125,191.833 38.026 C 191.833 37.966,187.408 37.937,182.000 37.962 C 173.284 38.003,172.167 37.979,172.167 37.754 C 172.167 37.614,172.228 37.500,172.303 37.500 C 172.378 37.500,172.617 36.750,172.833 35.833 C 173.050 34.917,173.293 34.167,173.373 34.167 C 173.454 34.167,173.475 34.095,173.421 34.007 C 173.367 33.919,173.399 33.713,173.492 33.548 C 173.586 33.384,173.820 32.612,174.012 31.833 C 174.204 31.054,174.424 30.342,174.499 30.250 C 174.575 30.158,174.689 29.802,174.754 29.458 L 174.870 28.833 167.380 28.833 C 163.260 28.833,159.839 28.883,159.778 28.944 M385.778 32.278 C 385.717 32.339,385.667 32.526,385.667 32.694 C 385.667 32.862,385.587 33.000,385.490 33.000 C 385.393 33.000,385.358 33.071,385.411 33.158 C 385.517 33.329,385.197 34.809,384.996 35.083 C 384.929 35.175,384.738 35.831,384.573 36.542 C 384.408 37.252,384.207 37.833,384.126 37.833 C 384.046 37.833,384.029 37.912,384.088 38.007 C 384.147 38.103,384.107 38.287,384.000 38.417 C 383.893 38.546,383.850 38.725,383.905 38.815 C 383.960 38.904,383.940 39.017,383.860 39.067 C 383.780 39.116,383.618 39.609,383.501 40.162 C 383.384 40.714,383.225 41.167,383.149 41.167 C 383.073 41.167,383.052 41.276,383.103 41.409 C 383.154 41.542,383.134 41.748,383.059 41.867 C 382.984 41.986,382.914 42.121,382.905 42.167 C 382.896 42.212,382.844 42.362,382.791 42.500 C 382.738 42.637,382.567 43.294,382.412 43.960 C 382.257 44.625,382.062 45.212,381.979 45.263 C 381.896 45.314,381.873 45.429,381.928 45.519 C 381.984 45.608,381.956 45.772,381.868 45.882 C 381.779 45.993,381.572 46.665,381.406 47.375 C 381.241 48.085,381.040 48.667,380.960 48.667 C 380.879 48.667,380.862 48.745,380.921 48.841 C 380.980 48.936,380.954 49.105,380.863 49.216 C 380.771 49.326,380.644 49.698,380.580 50.042 C 380.515 50.385,380.392 50.667,380.305 50.667 C 380.218 50.667,380.197 50.748,380.258 50.847 C 380.370 51.028,380.051 52.442,379.828 52.750 C 379.761 52.842,379.572 53.498,379.406 54.208 C 379.241 54.919,379.040 55.500,378.960 55.500 C 378.879 55.500,378.862 55.578,378.921 55.674 C 378.980 55.770,378.941 55.954,378.833 56.083 C 378.726 56.213,378.683 56.392,378.738 56.481 C 378.794 56.571,378.773 56.684,378.693 56.734 C 378.613 56.783,378.452 57.276,378.334 57.828 C 378.217 58.381,378.059 58.833,377.982 58.833 C 377.906 58.833,377.886 58.942,377.937 59.075 C 377.988 59.208,377.969 59.415,377.894 59.534 C 377.820 59.653,377.741 59.825,377.719 59.917 C 377.332 61.534,376.914 62.929,376.804 62.973 C 376.727 63.003,376.709 63.100,376.763 63.188 C 376.818 63.276,376.787 63.438,376.696 63.549 C 376.605 63.660,376.477 64.031,376.413 64.375 C 376.349 64.719,376.248 65.000,376.190 65.001 C 376.131 65.001,376.069 65.275,376.052 65.610 C 376.034 65.944,375.931 66.273,375.822 66.340 C 375.713 66.408,375.678 66.549,375.743 66.655 C 375.808 66.761,375.787 66.938,375.696 67.049 C 375.605 67.160,375.477 67.531,375.413 67.874 C 375.344 68.244,375.226 68.453,375.123 68.389 C 375.021 68.327,374.998 68.362,375.067 68.474 C 375.154 68.615,377.091 68.667,382.253 68.667 L 389.320 68.667 389.491 68.033 C 389.585 67.684,389.710 67.157,389.769 66.862 C 389.828 66.568,389.943 66.285,390.024 66.235 C 390.106 66.185,390.127 66.071,390.072 65.981 C 390.016 65.892,390.044 65.728,390.132 65.618 C 390.221 65.507,390.428 64.835,390.594 64.125 C 390.759 63.415,390.960 62.833,391.040 62.833 C 391.121 62.833,391.138 62.755,391.079 62.659 C 391.020 62.564,391.042 62.395,391.129 62.284 C 391.216 62.174,391.459 61.371,391.669 60.500 C 391.880 59.629,392.101 58.879,392.161 58.833 C 392.220 58.788,392.408 58.131,392.579 57.375 C 392.749 56.619,392.955 56.000,393.037 56.000 C 393.119 56.000,393.138 55.922,393.079 55.826 C 393.020 55.730,393.059 55.546,393.167 55.417 C 393.274 55.287,393.317 55.108,393.262 55.019 C 393.206 54.929,393.227 54.816,393.307 54.766 C 393.387 54.717,393.548 54.224,393.666 53.672 C 393.783 53.119,393.937 52.667,394.007 52.667 C 394.078 52.667,394.096 52.517,394.048 52.333 C 393.997 52.139,394.043 52.000,394.158 52.000 C 394.280 52.000,394.315 51.872,394.250 51.667 C 394.192 51.483,394.210 51.333,394.291 51.333 C 394.371 51.333,394.574 50.732,394.741 49.996 C 394.908 49.261,395.110 48.618,395.191 48.568 C 395.272 48.518,395.294 48.404,395.238 48.315 C 395.183 48.225,395.210 48.062,395.299 47.951 C 395.387 47.840,395.595 47.169,395.760 46.458 C 395.926 45.748,396.115 45.167,396.182 45.167 C 396.248 45.167,396.263 45.017,396.215 44.833 C 396.167 44.650,396.199 44.500,396.287 44.500 C 396.374 44.500,396.583 43.896,396.752 43.159 C 396.920 42.421,397.121 41.778,397.199 41.730 C 397.276 41.683,397.294 41.571,397.238 41.481 C 397.183 41.392,397.210 41.228,397.299 41.118 C 397.387 41.007,397.595 40.335,397.760 39.625 C 397.926 38.915,398.127 38.333,398.207 38.333 C 398.287 38.333,398.305 38.255,398.245 38.159 C 398.186 38.064,398.226 37.879,398.333 37.750 C 398.441 37.621,398.484 37.441,398.428 37.352 C 398.373 37.263,398.393 37.149,398.473 37.100 C 398.554 37.050,398.715 36.558,398.832 36.005 C 398.950 35.452,399.108 35.000,399.184 35.000 C 399.260 35.000,399.279 34.887,399.226 34.748 C 399.173 34.609,399.212 34.396,399.313 34.274 C 399.414 34.152,399.450 34.005,399.391 33.947 C 399.333 33.889,399.365 33.746,399.461 33.629 C 399.558 33.512,399.689 33.135,399.754 32.792 L 399.870 32.167 392.880 32.167 C 389.035 32.167,385.839 32.217,385.778 32.278 M122.453 37.958 C 108.013 37.996,105.979 38.032,105.911 38.251 C 105.868 38.388,105.784 38.631,105.723 38.792 C 105.594 39.131,105.622 39.043,105.345 40.000 C 105.226 40.412,104.878 41.575,104.572 42.583 C 104.266 43.592,103.926 44.792,103.817 45.250 C 103.708 45.708,103.565 46.158,103.499 46.250 C 103.433 46.342,103.330 46.623,103.270 46.875 L 103.160 47.333 116.538 47.336 C 124.602 47.337,129.822 47.398,129.678 47.490 C 129.528 47.584,129.807 47.607,130.428 47.551 C 132.252 47.386,133.079 48.044,132.966 49.574 L 132.917 50.250 121.272 50.284 C 114.867 50.303,109.586 50.359,109.535 50.409 C 109.485 50.459,108.838 50.504,108.097 50.510 C 103.153 50.546,100.129 52.402,98.743 56.250 C 98.578 56.708,98.391 57.158,98.329 57.250 C 98.266 57.342,98.036 58.129,97.816 59.000 C 97.597 59.871,97.350 60.632,97.269 60.691 C 96.887 60.968,96.940 64.760,97.337 65.555 C 98.185 67.252,100.762 68.667,103.007 68.667 C 103.339 68.667,103.655 68.710,103.708 68.764 C 104.110 69.166,142.251 69.281,142.415 68.881 C 142.561 68.523,143.352 65.854,143.960 63.667 C 144.202 62.796,144.444 62.046,144.497 62.000 C 144.551 61.954,144.772 61.204,144.990 60.333 C 145.207 59.462,145.440 58.675,145.507 58.583 C 145.574 58.492,145.789 57.779,145.985 57.000 C 146.181 56.221,146.416 55.433,146.508 55.250 C 146.600 55.067,146.893 54.129,147.159 53.167 C 148.098 49.767,148.400 48.749,148.491 48.667 C 148.542 48.621,148.599 48.471,148.619 48.333 C 148.638 48.196,148.771 47.671,148.913 47.167 C 149.834 43.904,149.368 40.890,147.809 40.027 C 147.534 39.875,147.159 39.624,146.975 39.470 C 146.792 39.315,146.066 39.063,145.362 38.908 C 144.659 38.753,143.971 38.586,143.833 38.537 C 143.491 38.415,142.872 38.352,140.875 38.235 C 139.935 38.180,139.167 38.067,139.167 37.984 C 139.167 37.901,139.110 37.852,139.042 37.874 C 138.973 37.897,131.508 37.935,122.453 37.958 M277.333 38.026 C 277.333 38.087,276.527 38.181,275.542 38.236 C 272.699 38.394,272.535 38.410,272.403 38.542 C 272.334 38.610,272.080 38.667,271.837 38.667 C 271.307 38.667,268.618 39.328,268.500 39.488 C 268.454 39.550,268.077 39.728,267.661 39.883 C 264.840 40.941,261.786 45.889,261.058 50.583 C 261.001 50.950,260.878 51.347,260.784 51.465 C 260.667 51.614,260.674 51.741,260.807 51.874 C 260.913 51.980,261.000 52.199,261.000 52.361 C 261.000 53.394,262.446 54.694,264.214 55.250 C 264.692 55.401,265.233 55.590,265.417 55.670 C 265.842 55.857,267.948 56.167,268.796 56.167 C 269.153 56.167,269.485 56.207,269.535 56.257 C 269.584 56.307,274.542 56.343,280.551 56.337 C 288.085 56.330,291.510 56.381,291.585 56.503 C 291.646 56.601,291.844 56.633,292.026 56.575 C 292.810 56.326,293.337 57.810,292.678 58.407 C 291.859 59.147,291.491 59.163,274.484 59.165 L 258.385 59.167 257.955 60.708 C 257.010 64.096,256.764 64.920,256.676 65.000 C 256.625 65.046,256.567 65.196,256.546 65.333 C 256.525 65.471,256.287 66.392,256.017 67.380 L 255.525 69.177 273.804 69.088 C 294.083 68.991,295.500 68.971,295.500 68.792 C 295.500 68.723,295.754 68.667,296.065 68.667 C 296.765 68.667,299.357 68.184,299.583 68.011 C 299.675 67.941,300.256 67.709,300.875 67.495 C 301.494 67.280,302.000 67.053,302.000 66.989 C 302.000 66.926,302.224 66.781,302.497 66.668 C 302.999 66.460,305.333 64.133,305.333 63.840 C 305.333 63.753,305.521 63.405,305.750 63.067 C 305.980 62.729,306.254 62.163,306.360 61.809 C 306.466 61.456,306.628 61.167,306.721 61.167 C 306.813 61.167,306.840 61.117,306.779 61.057 C 306.719 60.997,306.734 60.865,306.813 60.765 C 306.892 60.665,307.123 59.908,307.326 59.083 C 307.529 58.258,307.764 57.453,307.848 57.294 C 309.038 55.033,306.218 51.893,302.487 51.324 C 301.806 51.220,301.137 51.095,301.000 51.046 C 300.862 50.997,300.427 50.973,300.033 50.992 C 299.180 51.033,297.970 50.849,298.067 50.694 C 298.104 50.633,293.445 50.604,287.712 50.630 C 276.284 50.681,276.500 50.698,276.500 49.724 C 276.500 49.216,277.580 48.098,277.939 48.235 C 278.064 48.283,278.167 48.251,278.167 48.162 C 278.167 48.061,283.373 47.986,292.278 47.959 L 306.389 47.917 306.540 47.417 C 306.623 47.142,306.756 46.767,306.836 46.583 C 306.916 46.400,307.137 45.650,307.328 44.917 C 307.518 44.183,307.744 43.433,307.832 43.250 C 307.919 43.067,308.148 42.279,308.342 41.500 C 308.536 40.721,308.753 40.008,308.823 39.917 C 308.935 39.772,309.333 38.348,309.333 38.095 C 309.333 38.044,302.133 37.984,293.333 37.960 C 284.533 37.936,277.333 37.966,277.333 38.026 M64.312 38.458 C 64.212 38.710,63.951 39.592,63.731 40.417 C 63.510 41.242,63.260 42.067,63.173 42.250 C 63.087 42.433,62.859 43.183,62.667 43.917 C 62.474 44.650,62.249 45.400,62.167 45.583 C 62.084 45.767,61.859 46.517,61.667 47.250 C 61.474 47.983,61.249 48.733,61.167 48.917 C 61.084 49.100,60.859 49.850,60.665 50.583 C 60.472 51.317,60.270 52.029,60.215 52.167 C 60.161 52.304,60.095 52.492,60.069 52.583 C 60.043 52.675,59.865 53.313,59.672 54.000 C 59.480 54.688,59.276 55.362,59.219 55.500 C 59.095 55.802,59.122 55.710,58.592 57.667 C 58.356 58.538,58.091 59.400,58.002 59.583 C 57.913 59.767,57.684 60.517,57.494 61.250 C 57.304 61.983,57.081 62.733,56.999 62.917 C 56.917 63.100,56.693 63.850,56.500 64.583 C 56.307 65.317,56.083 66.067,56.002 66.250 C 55.921 66.433,55.733 67.033,55.584 67.583 C 55.436 68.133,55.276 68.715,55.229 68.875 C 55.149 69.150,55.583 69.167,62.717 69.167 L 70.289 69.167 70.571 68.125 C 70.726 67.552,70.898 66.971,70.954 66.833 C 71.009 66.696,71.067 66.546,71.083 66.500 C 71.099 66.454,71.154 66.304,71.206 66.167 C 71.257 66.029,71.472 65.242,71.683 64.417 C 71.894 63.592,72.164 62.729,72.282 62.500 C 72.401 62.271,72.498 61.962,72.499 61.813 C 72.500 61.664,72.753 60.764,73.062 59.813 C 73.370 58.862,73.718 57.671,73.833 57.167 C 73.949 56.663,74.099 56.175,74.167 56.083 C 74.234 55.992,74.464 55.242,74.676 54.417 C 74.889 53.592,75.105 52.879,75.157 52.833 C 75.208 52.788,75.266 52.637,75.285 52.500 C 75.372 51.868,76.054 49.744,76.186 49.694 C 76.267 49.664,76.333 49.547,76.333 49.434 C 76.333 49.194,77.091 48.456,77.614 48.187 C 77.870 48.055,80.736 48.000,87.300 48.000 L 96.621 48.000 96.882 47.292 C 97.025 46.902,97.299 45.983,97.491 45.250 C 97.683 44.517,97.910 43.767,97.995 43.583 C 98.081 43.400,98.315 42.612,98.516 41.833 C 98.716 41.054,98.934 40.342,98.999 40.250 C 99.065 40.158,99.203 39.737,99.306 39.313 C 99.410 38.890,99.541 38.421,99.598 38.271 C 99.694 38.023,99.057 38.001,92.059 38.014 C 84.003 38.029,82.954 38.092,81.614 38.641 C 81.356 38.747,81.083 38.833,81.008 38.833 C 80.932 38.833,80.489 39.096,80.023 39.417 C 79.556 39.737,79.129 40.000,79.074 40.000 C 78.952 40.000,79.157 38.982,79.327 38.750 C 79.898 37.967,80.217 38.000,72.074 38.000 L 64.492 38.000 64.312 38.458 M336.010 41.285 C 335.914 41.633,335.835 42.010,335.834 42.125 C 335.834 42.240,335.765 42.333,335.682 42.333 C 335.599 42.333,335.570 42.483,335.618 42.667 C 335.670 42.866,335.623 43.000,335.502 43.000 C 335.389 43.000,335.340 43.110,335.392 43.245 C 335.443 43.379,335.427 43.526,335.355 43.570 C 335.284 43.614,335.087 44.254,334.919 44.992 C 334.750 45.730,334.545 46.333,334.463 46.333 C 334.381 46.333,334.362 46.412,334.421 46.507 C 334.480 46.603,334.456 46.772,334.368 46.882 C 334.279 46.993,334.072 47.665,333.906 48.375 C 333.741 49.085,333.540 49.667,333.460 49.667 C 333.379 49.667,333.362 49.745,333.421 49.841 C 333.480 49.936,333.458 50.105,333.371 50.216 C 333.284 50.326,333.041 51.129,332.831 52.000 C 332.620 52.871,332.375 53.631,332.286 53.690 C 332.197 53.748,332.172 53.874,332.231 53.970 C 332.290 54.065,332.276 54.183,332.199 54.230 C 332.121 54.278,331.920 54.921,331.752 55.659 C 331.583 56.396,331.375 57.000,331.288 57.000 C 331.202 57.000,331.173 57.110,331.225 57.245 C 331.277 57.379,331.258 57.527,331.183 57.573 C 331.109 57.619,330.952 58.109,330.834 58.662 C 330.717 59.214,330.559 59.667,330.482 59.667 C 330.406 59.667,330.384 59.772,330.433 59.900 C 330.482 60.028,330.441 60.183,330.342 60.245 C 330.243 60.306,330.206 60.429,330.262 60.519 C 330.317 60.608,330.289 60.772,330.200 60.882 C 330.110 60.993,329.942 61.515,329.825 62.042 C 329.709 62.569,329.558 63.000,329.489 63.000 C 329.421 63.000,329.404 63.150,329.452 63.333 C 329.502 63.527,329.457 63.667,329.343 63.667 C 329.235 63.667,329.195 63.745,329.255 63.841 C 329.314 63.936,329.290 64.105,329.201 64.216 C 329.113 64.326,328.905 64.998,328.740 65.708 C 328.574 66.419,328.373 67.000,328.293 67.000 C 328.213 67.000,328.195 67.078,328.255 67.174 C 328.314 67.270,328.290 67.438,328.201 67.549 C 328.113 67.660,327.905 68.331,327.740 69.042 C 327.574 69.752,327.373 70.333,327.293 70.333 C 327.213 70.333,327.195 70.412,327.255 70.507 C 327.314 70.603,327.270 70.792,327.157 70.928 C 327.045 71.064,327.000 71.222,327.058 71.280 C 327.116 71.338,327.100 71.468,327.021 71.568 C 326.943 71.668,326.748 72.294,326.588 72.960 C 326.428 73.625,326.229 74.212,326.146 74.263 C 326.063 74.314,326.040 74.429,326.095 74.519 C 326.150 74.608,326.125 74.772,326.038 74.882 C 325.952 74.993,325.792 75.458,325.683 75.917 C 325.574 76.375,325.446 76.881,325.398 77.042 C 325.316 77.316,325.718 77.333,332.219 77.333 L 339.128 77.333 339.249 76.958 C 339.315 76.752,339.359 76.519,339.346 76.441 C 339.332 76.362,339.387 76.212,339.467 76.107 C 339.547 76.003,339.787 75.242,340.000 74.417 C 340.213 73.592,340.445 72.840,340.516 72.746 C 340.588 72.651,340.769 72.033,340.920 71.371 C 341.070 70.708,341.255 70.167,341.331 70.167 C 341.407 70.167,341.439 70.035,341.402 69.875 C 341.199 68.996,340.977 69.017,351.681 68.931 C 361.988 68.848,362.893 68.823,363.375 68.599 C 363.536 68.525,363.855 68.511,364.084 68.569 C 364.313 68.626,364.500 68.614,364.500 68.541 C 364.500 68.469,364.997 68.315,365.603 68.200 C 369.070 67.542,371.992 64.819,373.118 61.197 C 373.280 60.676,373.470 60.225,373.540 60.194 C 373.611 60.163,373.624 60.066,373.570 59.978 C 373.516 59.891,373.544 59.728,373.632 59.618 C 373.721 59.507,373.928 58.835,374.094 58.125 C 374.259 57.415,374.460 56.833,374.540 56.833 C 374.621 56.833,374.638 56.755,374.579 56.659 C 374.520 56.564,374.544 56.395,374.632 56.284 C 374.721 56.174,374.928 55.502,375.094 54.792 C 375.259 54.081,375.460 53.500,375.540 53.500 C 375.621 53.500,375.642 53.428,375.588 53.340 C 375.533 53.252,375.565 53.046,375.659 52.882 C 375.753 52.718,375.987 51.946,376.179 51.167 C 376.371 50.387,376.601 49.663,376.689 49.556 C 376.778 49.449,376.938 48.718,377.045 47.931 C 377.153 47.144,377.299 46.500,377.370 46.500 C 377.442 46.500,377.500 46.237,377.500 45.917 C 377.500 45.596,377.435 45.333,377.355 45.333 C 377.276 45.333,377.170 45.031,377.120 44.661 C 376.926 43.214,375.012 41.655,373.109 41.394 C 372.682 41.336,372.333 41.234,372.333 41.167 C 372.333 41.101,372.147 41.082,371.919 41.125 C 371.692 41.169,371.373 41.147,371.211 41.077 C 370.707 40.859,369.207 40.832,352.468 40.742 L 336.186 40.654 336.010 41.285 M185.023 48.290 C 185.772 48.733,185.873 50.054,185.260 51.389 C 185.126 51.679,184.898 52.404,184.753 53.000 C 184.608 53.596,184.346 54.496,184.171 55.000 C 183.996 55.504,183.735 56.345,183.590 56.869 C 182.999 59.012,182.039 59.202,172.167 59.129 L 166.083 59.083 166.029 58.699 C 165.999 58.488,166.045 58.225,166.132 58.116 C 166.219 58.006,166.464 57.242,166.676 56.417 C 166.889 55.592,167.108 54.879,167.162 54.833 C 167.217 54.788,167.438 54.038,167.654 53.167 C 167.870 52.296,168.140 51.358,168.255 51.083 C 168.370 50.808,168.589 50.096,168.741 49.500 C 168.894 48.904,169.050 48.323,169.088 48.208 C 169.210 47.836,184.386 47.914,185.023 48.290 M361.708 50.291 C 361.918 50.478,361.997 50.792,361.988 51.401 C 361.981 51.947,361.933 52.138,361.854 51.937 C 361.777 51.742,361.731 51.958,361.731 52.510 C 361.731 53.023,361.651 53.422,361.541 53.458 C 361.437 53.493,361.390 53.622,361.437 53.744 C 361.484 53.866,361.441 54.017,361.342 54.078 C 361.243 54.139,361.206 54.263,361.262 54.352 C 361.317 54.441,361.291 54.605,361.204 54.716 C 361.117 54.826,360.915 55.461,360.754 56.126 C 360.594 56.792,360.400 57.376,360.322 57.423 C 360.245 57.471,360.223 57.621,360.275 57.755 C 360.327 57.890,360.294 58.000,360.203 58.000 C 360.111 58.000,359.993 58.171,359.941 58.380 C 359.888 58.588,359.613 58.982,359.329 59.255 L 358.812 59.750 351.952 59.800 C 345.069 59.851,344.124 59.809,344.463 59.470 C 344.561 59.373,344.601 59.189,344.552 59.063 C 344.504 58.937,344.532 58.833,344.614 58.833 C 344.697 58.833,344.864 58.383,344.986 57.833 C 345.108 57.283,345.255 56.833,345.312 56.833 C 345.370 56.832,345.431 56.558,345.448 56.224 C 345.466 55.889,345.548 55.571,345.630 55.516 C 345.713 55.461,345.916 54.835,346.082 54.125 C 346.248 53.415,346.445 52.833,346.520 52.833 C 346.595 52.833,346.613 52.720,346.559 52.581 C 346.506 52.443,346.555 52.218,346.668 52.081 C 346.782 51.945,346.818 51.833,346.750 51.833 C 346.682 51.833,346.701 51.740,346.794 51.625 C 346.886 51.510,347.016 51.154,347.084 50.833 C 347.151 50.512,347.241 50.190,347.284 50.117 C 347.450 49.837,361.388 50.005,361.708 50.291 M130.800 56.543 C 130.924 56.693,130.841 57.157,130.509 58.168 L 130.044 59.583 121.492 59.583 L 112.941 59.583 112.835 59.167 C 112.551 58.051,113.328 56.717,114.417 56.453 C 115.250 56.250,130.627 56.335,130.800 56.543 M318.917 57.833 C 312.183 57.932,311.592 58.122,310.988 60.383 C 310.885 60.768,310.734 61.165,310.652 61.265 C 310.570 61.365,310.550 61.495,310.609 61.553 C 310.667 61.611,310.639 61.754,310.547 61.871 C 310.454 61.988,310.248 62.628,310.088 63.293 C 309.928 63.959,309.745 64.535,309.683 64.573 C 309.482 64.697,309.620 66.127,309.866 66.478 C 310.186 66.935,310.852 67.167,311.844 67.167 C 312.297 67.167,312.667 67.242,312.667 67.333 C 312.667 67.542,320.107 67.564,320.236 67.356 C 320.285 67.277,320.857 67.174,321.507 67.127 C 323.657 66.974,324.676 65.796,325.432 62.589 C 325.594 61.898,325.793 61.333,325.874 61.333 C 325.954 61.333,325.971 61.255,325.912 61.159 C 325.853 61.064,325.893 60.879,326.000 60.750 C 326.107 60.621,326.148 60.438,326.090 60.344 C 326.032 60.250,326.069 60.016,326.172 59.824 C 326.275 59.631,326.318 59.367,326.267 59.235 C 326.217 59.104,326.164 58.941,326.151 58.873 C 326.096 58.608,325.299 58.000,325.005 58.000 C 324.834 58.000,324.669 57.944,324.639 57.875 C 324.608 57.806,322.033 57.788,318.917 57.833 M178.258 72.961 C 178.354 73.028,178.524 73.830,178.637 74.743 C 178.749 75.655,178.898 76.443,178.968 76.493 C 179.037 76.542,179.194 76.996,179.316 77.500 C 179.534 78.397,180.798 81.502,181.013 81.667 C 181.073 81.712,181.277 82.050,181.467 82.417 C 181.792 83.044,182.431 83.954,183.583 85.431 C 186.516 89.189,191.375 92.082,197.000 93.420 C 197.688 93.584,198.287 93.767,198.333 93.827 C 198.379 93.888,199.279 94.147,200.333 94.404 C 201.387 94.660,202.325 94.927,202.417 94.996 C 202.508 95.065,203.146 95.254,203.833 95.417 C 204.521 95.579,205.165 95.776,205.265 95.855 C 205.365 95.933,205.495 95.950,205.553 95.891 C 205.611 95.833,205.754 95.861,205.871 95.953 C 205.988 96.045,206.796 96.291,207.667 96.500 C 208.537 96.709,209.325 96.933,209.417 96.999 C 209.508 97.064,210.108 97.245,210.750 97.400 C 211.392 97.554,212.048 97.720,212.208 97.768 C 212.423 97.833,212.500 97.761,212.500 97.493 C 212.500 97.253,212.578 97.161,212.731 97.220 C 212.889 97.280,212.938 97.214,212.884 97.010 C 212.806 96.709,213.606 93.391,213.832 93.083 C 213.899 92.992,214.087 92.354,214.250 91.667 C 214.413 90.979,214.590 90.342,214.643 90.250 C 214.697 90.158,214.758 90.008,214.780 89.917 C 215.081 88.636,215.724 86.380,215.824 86.251 C 216.069 85.934,216.711 82.978,216.563 82.843 C 216.483 82.770,215.704 82.540,214.833 82.332 C 213.963 82.124,213.175 81.899,213.083 81.833 C 212.992 81.767,212.204 81.542,211.333 81.333 C 210.463 81.124,209.675 80.899,209.583 80.833 C 209.492 80.767,208.704 80.542,207.833 80.333 C 206.963 80.124,206.175 79.910,206.083 79.856 C 205.992 79.803,205.842 79.741,205.750 79.719 C 204.418 79.400,202.732 78.923,202.667 78.847 C 202.621 78.794,202.471 78.736,202.333 78.718 C 198.628 78.251,195.098 75.931,194.455 73.542 L 194.264 72.833 186.174 72.836 C 181.724 72.837,178.162 72.894,178.258 72.961 " stroke="none" fill="#161610" fill-rule="evenodd"></path><path id="path2" d="M166.250 58.833 C 166.182 58.943,168.373 58.999,172.698 58.997 C 176.990 58.996,179.164 58.939,179.000 58.833 C 178.656 58.611,166.387 58.611,166.250 58.833 M258.500 58.833 C 258.500 58.943,264.000 59.000,274.667 59.000 C 285.333 59.000,290.833 58.943,290.833 58.833 C 290.833 58.723,285.333 58.667,274.667 58.667 C 264.000 58.667,258.500 58.723,258.500 58.833 M371.008 65.152 C 370.905 65.344,370.891 65.500,370.976 65.500 C 371.148 65.500,371.384 64.995,371.267 64.879 C 371.227 64.838,371.110 64.961,371.008 65.152 " stroke="none" fill="#656463" fill-rule="evenodd"></path><path id="path3" d="M163.292 28.792 C 165.423 28.818,168.910 28.818,171.042 28.792 C 173.173 28.765,171.429 28.744,167.167 28.744 C 162.904 28.744,161.160 28.765,163.292 28.792 M140.813 38.047 C 140.894 38.127,141.175 38.166,141.438 38.133 C 141.879 38.078,141.867 38.066,141.292 37.987 C 140.934 37.937,140.729 37.963,140.813 38.047 M258.219 58.958 C 258.162 59.119,258.084 59.325,258.045 59.417 C 258.007 59.508,258.093 59.438,258.238 59.260 C 258.500 58.937,258.579 58.667,258.411 58.667 C 258.363 58.667,258.276 58.798,258.219 58.958 M184.500 86.959 C 184.500 87.051,184.612 87.219,184.750 87.333 C 184.889 87.449,185.000 87.467,185.000 87.374 C 185.000 87.282,184.887 87.114,184.750 87.000 C 184.611 86.884,184.500 86.866,184.500 86.959 " stroke="none" fill="#7b7978" fill-rule="evenodd"></path><path id="path4" d="M272.583 16.936 C 273.721 17.959,273.864 18.065,273.660 17.728 C 273.541 17.532,273.213 17.240,272.930 17.079 C 272.648 16.918,272.492 16.853,272.583 16.936 M275.192 19.210 C 275.618 19.645,276.007 20.000,276.057 20.000 C 276.178 20.000,275.359 19.163,274.833 18.749 C 274.604 18.568,274.765 18.776,275.192 19.210 M276.500 20.641 C 276.500 20.718,276.650 20.917,276.833 21.083 C 277.017 21.249,277.167 21.336,277.167 21.276 C 277.167 21.216,277.017 21.017,276.833 20.833 C 276.650 20.650,276.500 20.563,276.500 20.641 M161.583 28.619 C 167.025 28.734,175.167 28.738,175.167 28.625 C 175.167 28.556,171.623 28.516,167.292 28.536 C 162.960 28.556,160.392 28.593,161.583 28.619 M263.108 30.088 C 263.162 30.228,263.366 30.426,263.561 30.527 C 263.888 30.697,263.884 30.677,263.513 30.273 C 263.048 29.767,262.972 29.733,263.108 30.088 M385.667 32.000 C 385.667 32.109,388.167 32.167,392.833 32.167 C 397.500 32.167,400.000 32.109,400.000 32.000 C 400.000 31.891,397.500 31.833,392.833 31.833 C 388.167 31.833,385.667 31.891,385.667 32.000 M64.278 37.789 C 64.193 37.925,79.826 37.896,79.963 37.760 C 80.007 37.715,76.514 37.675,72.200 37.670 C 67.886 37.665,64.321 37.718,64.278 37.789 M92.325 37.791 C 97.984 37.826,99.767 37.886,99.879 38.043 C 99.986 38.195,100.007 38.183,99.957 38.000 C 99.898 37.783,98.914 37.750,92.403 37.747 L 84.917 37.745 92.325 37.791 M113.625 37.792 C 118.048 37.816,125.285 37.816,129.708 37.792 C 134.131 37.767,130.512 37.747,121.667 37.747 C 112.821 37.747,109.202 37.767,113.625 37.792 M176.958 37.792 C 179.456 37.817,183.544 37.817,186.042 37.792 C 188.540 37.766,186.496 37.744,181.500 37.744 C 176.504 37.744,174.460 37.766,176.958 37.792 M284.167 37.789 C 298.809 37.904,309.667 37.905,309.667 37.792 C 309.667 37.723,302.673 37.684,294.125 37.706 C 285.577 37.728,281.096 37.765,284.167 37.789 M141.042 37.948 C 141.202 37.990,141.465 37.990,141.625 37.948 C 141.785 37.906,141.654 37.872,141.333 37.872 C 141.012 37.872,140.881 37.906,141.042 37.948 M193.333 37.897 C 193.333 38.049,193.983 38.113,194.190 37.982 C 194.344 37.884,194.243 37.838,193.875 37.836 C 193.577 37.834,193.333 37.862,193.333 37.897 M274.572 37.983 C 274.873 38.101,275.667 38.039,275.667 37.897 C 275.667 37.862,275.348 37.839,274.958 37.845 C 274.457 37.853,274.344 37.894,274.572 37.983 M142.833 38.167 C 142.833 38.258,142.983 38.333,143.167 38.333 C 143.350 38.333,143.500 38.258,143.500 38.167 C 143.500 38.075,143.350 38.000,143.167 38.000 C 142.983 38.000,142.833 38.075,142.833 38.167 M195.500 38.167 C 195.500 38.258,195.650 38.333,195.833 38.333 C 196.017 38.333,196.167 38.258,196.167 38.167 C 196.167 38.075,196.017 38.000,195.833 38.000 C 195.650 38.000,195.500 38.075,195.500 38.167 M272.417 38.167 C 272.357 38.264,272.526 38.333,272.823 38.333 C 273.104 38.333,273.333 38.258,273.333 38.167 C 273.333 38.075,273.150 38.000,272.927 38.000 C 272.703 38.000,272.473 38.075,272.417 38.167 M148.377 40.248 C 148.660 40.568,148.922 40.800,148.960 40.762 C 149.047 40.675,148.152 39.667,147.987 39.667 C 147.918 39.667,148.094 39.928,148.377 40.248 M369.875 40.782 C 370.035 40.823,370.298 40.823,370.458 40.782 C 370.619 40.740,370.488 40.705,370.167 40.705 C 369.846 40.705,369.715 40.740,369.875 40.782 M375.865 42.345 C 375.932 42.547,376.667 43.117,376.667 42.967 C 376.667 42.927,376.471 42.723,376.231 42.515 C 375.991 42.306,375.827 42.230,375.865 42.345 M377.212 44.512 C 377.198 44.689,377.258 44.833,377.344 44.833 C 377.533 44.833,377.553 44.386,377.368 44.271 C 377.295 44.226,377.225 44.335,377.212 44.512 M377.167 47.500 C 377.167 47.683,377.242 47.833,377.333 47.833 C 377.425 47.833,377.500 47.683,377.500 47.500 C 377.500 47.317,377.425 47.167,377.333 47.167 C 377.242 47.167,377.167 47.317,377.167 47.500 M130.333 47.667 C 130.661 47.878,131.167 47.878,131.167 47.667 C 131.167 47.575,130.923 47.501,130.625 47.503 C 130.214 47.504,130.144 47.544,130.333 47.667 M96.833 47.972 C 96.833 48.118,94.467 48.177,87.458 48.207 L 78.083 48.247 87.407 48.292 C 96.206 48.334,97.342 48.286,96.947 47.892 C 96.885 47.829,96.833 47.865,96.833 47.972 M131.681 47.884 C 131.719 47.912,131.975 48.066,132.250 48.227 L 132.750 48.520 132.357 48.177 C 132.140 47.988,131.884 47.833,131.787 47.833 C 131.690 47.833,131.642 47.856,131.681 47.884 M173.053 48.292 C 175.145 48.318,178.520 48.318,180.553 48.291 C 182.586 48.265,180.875 48.243,176.750 48.243 C 172.625 48.243,170.961 48.265,173.053 48.292 M285.875 48.292 C 289.702 48.317,295.965 48.317,299.792 48.292 C 303.619 48.267,300.487 48.246,292.833 48.246 C 285.179 48.246,282.048 48.267,285.875 48.292 M76.881 48.950 C 76.678 49.161,76.573 49.333,76.647 49.333 C 76.809 49.333,77.416 48.685,77.318 48.616 C 77.281 48.589,77.084 48.739,76.881 48.950 M185.278 49.250 C 185.405 50.074,185.501 50.214,185.497 49.569 C 185.496 49.302,185.423 48.971,185.336 48.833 C 185.227 48.663,185.209 48.796,185.278 49.250 M111.208 50.115 C 111.369 50.157,111.631 50.157,111.792 50.115 C 111.952 50.073,111.821 50.039,111.500 50.039 C 111.179 50.039,111.048 50.073,111.208 50.115 M119.197 50.125 C 121.642 50.151,125.692 50.151,128.197 50.125 C 130.701 50.099,128.700 50.078,123.750 50.078 C 118.800 50.078,116.751 50.099,119.197 50.125 M107.042 50.282 C 107.202 50.323,107.465 50.323,107.625 50.282 C 107.785 50.240,107.654 50.205,107.333 50.205 C 107.013 50.205,106.881 50.240,107.042 50.282 M105.333 50.500 C 105.333 50.592,105.446 50.667,105.583 50.667 C 105.721 50.667,105.833 50.592,105.833 50.500 C 105.833 50.408,105.721 50.333,105.583 50.333 C 105.446 50.333,105.333 50.408,105.333 50.500 M277.609 50.542 C 277.652 50.610,282.065 50.667,287.417 50.667 C 292.768 50.667,297.182 50.610,297.224 50.542 C 297.267 50.473,292.853 50.417,287.417 50.417 C 281.980 50.417,277.567 50.473,277.609 50.542 M299.917 50.667 C 299.858 50.762,300.002 50.833,300.250 50.833 C 300.498 50.833,300.642 50.762,300.583 50.667 C 300.527 50.575,300.377 50.500,300.250 50.500 C 300.123 50.500,299.973 50.575,299.917 50.667 M100.480 52.667 C 100.102 53.033,99.862 53.333,99.946 53.333 C 100.029 53.333,100.382 53.033,100.730 52.667 C 101.077 52.300,101.318 52.000,101.264 52.000 C 101.211 52.000,100.858 52.300,100.480 52.667 M306.333 52.465 C 306.333 52.547,306.596 52.852,306.917 53.144 C 307.237 53.436,307.500 53.624,307.500 53.563 C 307.500 53.501,307.237 53.195,306.917 52.884 C 306.596 52.572,306.333 52.384,306.333 52.465 M261.173 53.792 C 261.182 53.982,262.563 54.994,262.663 54.884 C 262.711 54.831,262.638 54.748,262.502 54.700 C 262.365 54.652,262.040 54.399,261.780 54.139 C 261.292 53.651,261.162 53.577,261.173 53.792 M146.667 55.083 C 146.667 55.221,146.742 55.333,146.833 55.333 C 146.925 55.333,147.000 55.221,147.000 55.083 C 147.000 54.946,146.925 54.833,146.833 54.833 C 146.742 54.833,146.667 54.946,146.667 55.083 M308.059 56.246 C 308.052 56.747,308.111 57.118,308.190 57.069 C 308.369 56.958,308.381 55.333,308.203 55.333 C 308.131 55.333,308.067 55.744,308.059 56.246 M270.377 56.620 C 270.631 56.658,271.006 56.657,271.211 56.617 C 271.416 56.578,271.208 56.546,270.750 56.548 C 270.292 56.549,270.124 56.581,270.377 56.620 M113.536 57.170 C 113.341 57.483,113.350 57.492,113.663 57.297 C 113.848 57.181,114.000 57.030,114.000 56.960 C 114.000 56.719,113.746 56.835,113.536 57.170 M325.881 58.383 C 326.084 58.594,326.281 58.745,326.318 58.718 C 326.416 58.648,325.809 58.000,325.647 58.000 C 325.573 58.000,325.678 58.173,325.881 58.383 M311.713 58.542 C 311.429 58.909,311.299 59.262,311.571 58.927 C 311.715 58.749,311.927 58.544,312.042 58.471 C 312.178 58.384,312.185 58.338,312.062 58.336 C 311.959 58.334,311.802 58.427,311.713 58.542 M309.383 65.500 C 309.383 66.004,309.415 66.210,309.453 65.958 C 309.491 65.706,309.491 65.294,309.453 65.042 C 309.415 64.790,309.383 64.996,309.383 65.500 M194.833 65.692 C 194.077 66.545,194.096 66.574,194.908 65.803 C 195.271 65.459,195.533 65.146,195.492 65.107 C 195.450 65.067,195.154 65.331,194.833 65.692 M321.417 67.333 C 321.360 67.425,321.426 67.500,321.564 67.500 C 321.701 67.500,321.860 67.425,321.917 67.333 C 321.973 67.242,321.907 67.167,321.770 67.167 C 321.632 67.167,321.473 67.242,321.417 67.333 M374.833 68.718 C 374.833 69.095,389.356 69.081,389.432 68.704 C 389.456 68.587,389.437 68.569,389.390 68.662 C 389.261 68.924,375.296 68.896,375.033 68.633 C 374.878 68.478,374.833 68.497,374.833 68.718 M70.500 69.139 C 70.500 69.284,68.511 69.344,62.708 69.373 L 54.917 69.413 62.657 69.458 C 69.946 69.501,71.003 69.448,70.614 69.058 C 70.551 68.996,70.500 69.032,70.500 69.139 M104.294 69.118 C 104.501 69.158,104.801 69.156,104.960 69.115 C 105.120 69.073,104.950 69.040,104.583 69.042 C 104.217 69.044,104.086 69.078,104.294 69.118 M185.127 69.118 C 185.334 69.158,185.634 69.156,185.794 69.115 C 185.953 69.073,185.783 69.040,185.417 69.042 C 185.050 69.044,184.920 69.078,185.127 69.118 M255.313 69.210 C 255.530 69.486,256.511 69.503,272.463 69.498 C 281.769 69.496,289.345 69.456,289.299 69.410 C 289.253 69.365,281.657 69.329,272.419 69.332 C 259.162 69.335,255.565 69.292,255.352 69.127 C 255.113 68.940,255.109 68.949,255.313 69.210 M294.125 69.118 C 294.331 69.157,294.669 69.157,294.875 69.118 C 295.081 69.078,294.912 69.045,294.500 69.045 C 294.087 69.045,293.919 69.078,294.125 69.118 M341.778 69.111 C 341.717 69.172,341.668 69.303,341.669 69.403 C 341.671 69.511,341.724 69.500,341.803 69.376 C 341.904 69.217,343.972 69.159,350.842 69.125 L 359.750 69.080 350.819 69.040 C 345.908 69.018,341.839 69.050,341.778 69.111 M109.726 69.372 C 109.685 69.439,117.061 69.478,126.117 69.458 C 135.174 69.439,139.958 69.403,136.750 69.378 C 121.756 69.264,109.795 69.261,109.726 69.372 M155.708 69.458 C 160.177 69.483,167.490 69.483,171.958 69.458 C 176.427 69.434,172.771 69.413,163.833 69.413 C 154.896 69.413,151.240 69.434,155.708 69.458 M182.605 84.912 C 182.653 85.038,182.795 85.180,182.921 85.229 C 183.065 85.284,183.117 85.232,183.062 85.088 C 183.014 84.962,182.871 84.820,182.746 84.771 C 182.601 84.716,182.549 84.768,182.605 84.912 M183.603 86.073 C 183.653 86.205,183.895 86.441,184.139 86.596 C 184.581 86.878,184.581 86.877,184.094 86.356 C 183.546 85.771,183.470 85.727,183.603 86.073 M185.428 87.917 C 185.673 88.237,185.954 88.500,186.052 88.500 C 186.151 88.500,185.978 88.237,185.667 87.917 C 185.356 87.596,185.075 87.333,185.042 87.333 C 185.010 87.333,185.183 87.596,185.428 87.917 " stroke="none" fill="#8c8484" fill-rule="evenodd"></path><path id="path5" d="M109.625 47.458 C 113.223 47.483,119.110 47.483,122.708 47.458 C 126.306 47.433,123.362 47.413,116.167 47.413 C 108.971 47.413,106.027 47.433,109.625 47.458 M82.804 48.125 C 85.400 48.151,89.600 48.151,92.137 48.125 C 94.674 48.099,92.550 48.078,87.417 48.078 C 82.283 48.078,80.207 48.099,82.804 48.125 M173.042 48.125 C 175.127 48.151,178.540 48.151,180.625 48.125 C 182.710 48.098,181.004 48.077,176.833 48.077 C 172.662 48.077,170.956 48.098,173.042 48.125 M285.792 48.125 C 289.573 48.150,295.760 48.150,299.542 48.125 C 303.323 48.100,300.229 48.080,292.667 48.080 C 285.104 48.080,282.010 48.100,285.792 48.125 M185.492 49.621 C 185.446 50.008,185.472 50.261,185.550 50.184 C 185.627 50.106,185.665 49.789,185.633 49.480 C 185.576 48.931,185.573 48.934,185.492 49.621 M116.137 50.292 C 119.192 50.317,124.142 50.317,127.137 50.292 C 130.133 50.266,127.633 50.245,121.583 50.245 C 115.533 50.245,113.083 50.266,116.137 50.292 M118.625 56.625 C 120.848 56.651,124.485 56.651,126.708 56.625 C 128.931 56.599,127.112 56.577,122.667 56.577 C 118.221 56.577,116.402 56.599,118.625 56.625 M277.958 56.625 C 280.456 56.651,284.544 56.651,287.042 56.625 C 289.540 56.599,287.496 56.578,282.500 56.578 C 277.504 56.578,275.460 56.599,277.958 56.625 M315.417 57.667 C 315.207 57.757,315.176 57.810,315.333 57.810 C 315.471 57.810,315.733 57.745,315.917 57.667 C 316.127 57.576,316.158 57.523,316.000 57.523 C 315.862 57.523,315.600 57.588,315.417 57.667 " stroke="none" fill="#423c3c" fill-rule="evenodd"></path><path id="path6" d="M72.092 37.960 C 77.048 37.988,79.649 38.061,79.582 38.168 C 79.526 38.259,79.566 38.333,79.671 38.333 C 79.775 38.333,79.830 38.240,79.792 38.125 C 79.738 37.962,78.052 37.917,72.111 37.917 L 64.500 37.917 72.092 37.960 M88.553 37.958 C 90.645 37.985,94.020 37.985,96.053 37.958 C 98.086 37.932,96.375 37.910,92.250 37.910 C 88.125 37.910,86.461 37.932,88.553 37.958 M113.862 37.958 C 118.232 37.983,125.432 37.983,129.862 37.958 C 134.292 37.934,130.717 37.913,121.917 37.913 C 113.117 37.913,109.492 37.934,113.862 37.958 M176.875 37.958 C 179.419 37.984,183.581 37.984,186.125 37.958 C 188.669 37.932,186.588 37.911,181.500 37.911 C 176.412 37.911,174.331 37.932,176.875 37.958 M286.112 37.958 C 290.345 37.983,297.320 37.983,301.612 37.958 C 305.905 37.934,302.442 37.913,293.917 37.913 C 285.392 37.913,281.880 37.934,286.112 37.958 M132.820 49.375 C 132.771 49.733,132.796 49.937,132.880 49.853 C 132.960 49.773,132.999 49.492,132.966 49.229 C 132.911 48.788,132.900 48.800,132.820 49.375 M298.917 50.667 C 298.860 50.758,298.926 50.833,299.064 50.833 C 299.201 50.833,299.360 50.758,299.417 50.667 C 299.473 50.575,299.407 50.500,299.270 50.500 C 299.132 50.500,298.973 50.575,298.917 50.667 M179.000 58.833 C 179.328 59.046,180.000 59.046,180.000 58.833 C 180.000 58.742,179.719 58.668,179.375 58.669 C 178.910 58.671,178.814 58.713,179.000 58.833 M96.768 63.070 C 96.713 63.291,96.730 63.642,96.807 63.850 C 96.917 64.148,96.949 64.063,96.958 63.447 C 96.971 62.576,96.919 62.471,96.768 63.070 " stroke="none" fill="#54514c" fill-rule="evenodd"></path><path id="path7" d="M244.279 9.292 C 244.164 9.488,243.951 10.593,244.046 10.500 C 244.156 10.393,244.493 9.167,244.413 9.167 C 244.380 9.167,244.320 9.223,244.279 9.292 M250.953 9.507 C 251.166 9.698,252.038 9.863,251.933 9.693 C 251.880 9.608,251.609 9.505,251.330 9.464 C 251.051 9.423,250.881 9.442,250.953 9.507 M254.437 10.489 C 254.518 10.562,254.911 10.700,255.313 10.798 C 255.714 10.895,255.976 10.916,255.896 10.844 C 255.816 10.772,255.422 10.633,255.021 10.535 C 254.620 10.438,254.357 10.417,254.437 10.489 M257.937 11.489 C 258.018 11.562,258.411 11.700,258.813 11.798 C 259.214 11.895,259.476 11.916,259.396 11.844 C 259.316 11.772,258.922 11.633,258.521 11.535 C 258.120 11.438,257.857 11.417,257.937 11.489 M243.263 12.684 C 243.048 13.324,242.863 14.193,242.963 14.092 C 243.123 13.933,243.502 12.613,243.413 12.524 C 243.374 12.485,243.306 12.557,243.263 12.684 M262.086 12.671 C 262.128 12.738,262.348 12.829,262.576 12.873 C 262.804 12.916,262.956 12.897,262.914 12.829 C 262.872 12.762,262.652 12.671,262.424 12.627 C 262.196 12.584,262.044 12.603,262.086 12.671 M265.167 13.535 C 265.212 13.580,265.511 13.705,265.830 13.813 C 266.148 13.921,266.336 13.937,266.246 13.850 C 266.157 13.762,265.858 13.637,265.583 13.572 C 265.308 13.506,265.121 13.490,265.167 13.535 M242.275 16.126 C 242.232 16.196,242.153 16.552,242.098 16.918 C 241.987 17.666,242.067 17.555,242.310 16.625 C 242.464 16.035,242.450 15.842,242.275 16.126 M275.000 19.417 C 275.498 19.921,275.943 20.333,275.989 20.333 C 276.034 20.333,275.665 19.921,275.167 19.417 C 274.669 18.912,274.224 18.500,274.178 18.500 C 274.132 18.500,274.502 18.912,275.000 19.417 M241.048 20.263 C 240.952 20.683,240.933 20.964,241.005 20.888 C 241.200 20.682,241.493 19.500,241.348 19.500 C 241.279 19.500,241.144 19.843,241.048 20.263 M277.318 22.139 C 277.408 22.307,277.613 22.550,277.773 22.680 C 277.953 22.827,277.913 22.710,277.667 22.375 C 277.229 21.777,277.065 21.666,277.318 22.139 M245.746 24.327 C 245.805 24.422,246.049 24.500,246.288 24.500 C 246.810 24.500,246.750 24.420,246.111 24.267 C 245.801 24.192,245.676 24.213,245.746 24.327 M249.667 25.500 C 249.896 25.573,250.233 25.633,250.417 25.633 C 250.681 25.633,250.663 25.606,250.333 25.500 C 250.104 25.427,249.767 25.367,249.583 25.367 C 249.319 25.367,249.337 25.394,249.667 25.500 M253.425 26.514 C 253.477 26.598,253.659 26.667,253.829 26.667 C 254.000 26.667,254.177 26.744,254.224 26.837 C 254.270 26.931,254.290 26.917,254.268 26.805 C 254.246 26.693,254.026 26.548,253.780 26.482 C 253.519 26.412,253.371 26.426,253.425 26.514 M256.919 27.504 C 256.961 27.572,257.181 27.662,257.409 27.706 C 257.637 27.750,257.789 27.730,257.747 27.662 C 257.706 27.595,257.485 27.504,257.258 27.461 C 257.030 27.417,256.878 27.437,256.919 27.504 M280.649 28.754 C 280.934 29.648,281.005 29.759,280.915 29.172 C 280.867 28.854,280.751 28.518,280.659 28.426 C 280.546 28.313,280.543 28.420,280.649 28.754 M159.382 29.597 C 159.285 30.016,159.266 30.298,159.338 30.222 C 159.534 30.015,159.826 28.833,159.681 28.833 C 159.612 28.833,159.478 29.177,159.382 29.597 M263.500 30.052 C 263.500 30.081,263.744 30.325,264.042 30.594 L 264.583 31.083 264.094 30.542 C 263.638 30.037,263.500 29.923,263.500 30.052 M174.199 31.021 C 174.103 31.399,174.086 31.643,174.162 31.563 C 174.317 31.397,174.567 30.333,174.450 30.333 C 174.408 30.333,174.295 30.643,174.199 31.021 M158.382 32.930 C 158.285 33.350,158.266 33.631,158.338 33.555 C 158.534 33.349,158.826 32.167,158.681 32.167 C 158.612 32.167,158.478 32.510,158.382 32.930 M281.705 33.833 C 281.705 34.154,281.740 34.285,281.782 34.125 C 281.823 33.965,281.823 33.702,281.782 33.542 C 281.740 33.381,281.705 33.512,281.705 33.833 M157.421 36.226 C 157.373 36.377,157.298 36.612,157.255 36.750 C 157.212 36.887,157.214 37.000,157.259 37.000 C 157.387 37.000,157.687 36.131,157.592 36.036 C 157.546 35.990,157.469 36.076,157.421 36.226 M139.167 38.000 C 139.167 38.092,139.279 38.167,139.417 38.167 C 139.554 38.167,139.667 38.092,139.667 38.000 C 139.667 37.908,139.554 37.833,139.417 37.833 C 139.279 37.833,139.167 37.908,139.167 38.000 M276.833 38.000 C 276.833 38.092,276.946 38.167,277.083 38.167 C 277.221 38.167,277.333 38.092,277.333 38.000 C 277.333 37.908,277.221 37.833,277.083 37.833 C 276.946 37.833,276.833 37.908,276.833 38.000 M105.745 38.250 C 105.702 38.387,105.630 38.616,105.585 38.759 C 105.540 38.901,105.569 38.977,105.649 38.928 C 105.728 38.879,105.830 38.650,105.874 38.419 C 105.961 37.964,105.871 37.846,105.745 38.250 M81.417 38.589 C 80.998 38.791,80.984 38.814,81.333 38.730 C 81.563 38.674,81.821 38.563,81.908 38.481 C 82.124 38.279,82.006 38.305,81.417 38.589 M143.760 38.516 C 143.799 38.579,144.088 38.660,144.403 38.697 C 144.719 38.734,144.945 38.713,144.907 38.650 C 144.868 38.588,144.578 38.507,144.263 38.470 C 143.948 38.433,143.722 38.454,143.760 38.516 M196.333 38.516 C 196.333 38.580,196.627 38.660,196.986 38.694 C 197.345 38.728,197.608 38.707,197.571 38.646 C 197.477 38.494,196.333 38.374,196.333 38.516 M271.833 38.455 C 271.013 38.552,270.865 38.772,271.672 38.695 C 272.037 38.660,272.377 38.564,272.428 38.482 C 272.478 38.400,272.496 38.345,272.468 38.360 C 272.440 38.375,272.154 38.418,271.833 38.455 M79.279 38.792 C 79.070 39.147,78.988 40.000,79.163 40.000 C 79.268 40.000,79.313 39.936,79.265 39.857 C 79.216 39.778,79.244 39.478,79.327 39.190 C 79.468 38.699,79.445 38.510,79.279 38.792 M156.421 39.559 C 156.373 39.710,156.298 39.946,156.255 40.083 C 156.212 40.221,156.214 40.333,156.259 40.333 C 156.387 40.333,156.687 39.464,156.592 39.370 C 156.546 39.323,156.469 39.409,156.421 39.559 M308.658 40.273 C 308.566 40.515,308.529 40.751,308.575 40.797 C 308.650 40.872,308.732 40.697,308.927 40.042 C 309.046 39.645,308.824 39.835,308.658 40.273 M98.911 40.417 C 98.868 40.554,98.797 40.783,98.752 40.925 C 98.707 41.068,98.736 41.144,98.815 41.094 C 98.895 41.045,98.996 40.816,99.040 40.586 C 99.127 40.130,99.038 40.013,98.911 40.417 M63.430 40.851 C 63.214 41.491,63.029 42.359,63.130 42.259 C 63.289 42.100,63.668 40.779,63.580 40.691 C 63.540 40.651,63.473 40.723,63.430 40.851 M367.708 40.782 C 367.869 40.823,368.131 40.823,368.292 40.782 C 368.452 40.740,368.321 40.705,368.000 40.705 C 367.679 40.705,367.548 40.740,367.708 40.782 M369.208 40.953 C 369.460 40.991,369.873 40.991,370.125 40.953 C 370.377 40.915,370.171 40.883,369.667 40.883 C 369.162 40.883,368.956 40.915,369.208 40.953 M104.779 41.458 C 104.664 41.654,104.451 42.760,104.546 42.667 C 104.656 42.560,104.993 41.333,104.913 41.333 C 104.880 41.333,104.820 41.390,104.779 41.458 M201.960 41.922 C 202.003 42.148,202.098 42.333,202.170 42.333 C 202.325 42.333,202.183 41.697,202.004 41.586 C 201.937 41.544,201.917 41.695,201.960 41.922 M202.225 43.833 C 202.225 44.612,202.254 44.931,202.289 44.542 C 202.324 44.152,202.324 43.515,202.289 43.125 C 202.254 42.735,202.225 43.054,202.225 43.833 M149.386 43.750 C 149.388 44.779,149.405 44.841,149.528 44.276 C 149.605 43.923,149.604 43.398,149.526 43.109 C 149.412 42.686,149.385 42.810,149.386 43.750 M155.444 42.958 C 155.301 43.197,155.017 44.372,155.130 44.259 C 155.258 44.131,155.663 42.833,155.576 42.833 C 155.545 42.833,155.486 42.890,155.444 42.958 M307.759 43.375 C 307.725 43.490,307.618 43.827,307.523 44.125 C 307.428 44.423,307.409 44.667,307.481 44.667 C 307.552 44.667,307.688 44.329,307.782 43.917 C 307.936 43.245,307.919 42.850,307.759 43.375 M97.926 43.708 C 97.891 43.823,97.781 44.173,97.681 44.485 C 97.580 44.798,97.535 45.090,97.579 45.134 C 97.668 45.223,97.739 45.043,97.977 44.125 C 98.124 43.562,98.080 43.204,97.926 43.708 M262.708 45.042 C 262.529 45.531,262.534 45.552,262.755 45.260 C 262.967 44.980,263.092 44.500,262.953 44.500 C 262.927 44.500,262.817 44.744,262.708 45.042 M62.245 44.917 C 62.202 45.054,62.130 45.283,62.085 45.425 C 62.040 45.568,62.069 45.644,62.149 45.594 C 62.228 45.545,62.330 45.316,62.374 45.086 C 62.461 44.630,62.371 44.513,62.245 44.917 M103.754 44.875 C 103.525 45.566,103.366 46.365,103.483 46.236 C 103.638 46.064,104.004 44.667,103.894 44.667 C 103.855 44.667,103.792 44.760,103.754 44.875 M306.759 46.708 C 306.725 46.823,306.612 47.177,306.510 47.496 C 306.408 47.815,306.394 48.002,306.480 47.913 C 306.652 47.732,307.017 46.500,306.898 46.500 C 306.857 46.500,306.794 46.594,306.759 46.708 M154.245 46.917 C 154.202 47.054,154.130 47.283,154.085 47.425 C 154.040 47.568,154.069 47.644,154.149 47.594 C 154.228 47.545,154.330 47.316,154.374 47.086 C 154.461 46.630,154.371 46.513,154.245 46.917 M261.770 47.527 C 261.624 48.255,261.740 48.290,261.956 47.583 C 262.055 47.262,262.077 47.000,262.005 47.000 C 261.934 47.000,261.828 47.237,261.770 47.527 M116.167 47.500 L 103.083 47.586 116.250 47.624 C 124.534 47.648,129.509 47.602,129.667 47.500 C 129.870 47.368,129.855 47.345,129.583 47.376 C 129.400 47.397,123.362 47.452,116.167 47.500 M61.215 48.263 C 61.119 48.683,61.100 48.964,61.174 48.888 C 61.322 48.735,61.580 47.500,61.463 47.500 C 61.423 47.500,61.311 47.843,61.215 48.263 M77.458 48.262 C 76.812 48.613,76.885 48.734,77.542 48.400 C 78.170 48.080,78.281 47.997,78.069 48.007 C 77.985 48.010,77.710 48.125,77.458 48.262 M169.078 48.250 C 169.035 48.387,168.963 48.616,168.919 48.759 C 168.874 48.901,168.902 48.977,168.982 48.928 C 169.062 48.879,169.163 48.650,169.207 48.419 C 169.294 47.964,169.204 47.846,169.078 48.250 M278.167 48.144 C 278.167 48.223,278.354 48.251,278.583 48.207 C 278.813 48.164,279.000 48.099,279.000 48.064 C 279.000 48.029,278.813 48.000,278.583 48.000 C 278.354 48.000,278.167 48.065,278.167 48.144 M201.245 48.583 C 201.202 48.721,201.130 48.950,201.085 49.092 C 201.040 49.234,201.069 49.310,201.149 49.261 C 201.228 49.212,201.330 48.983,201.374 48.752 C 201.461 48.297,201.371 48.179,201.245 48.583 M276.601 49.264 C 276.462 49.627,276.474 50.131,276.625 50.224 C 276.694 50.266,276.754 50.008,276.758 49.650 C 276.767 48.928,276.748 48.881,276.601 49.264 M153.215 50.263 C 153.119 50.683,153.099 50.964,153.171 50.888 C 153.367 50.682,153.659 49.500,153.515 49.500 C 153.446 49.500,153.311 49.843,153.215 50.263 M350.625 50.125 C 352.481 50.152,355.519 50.152,357.375 50.125 C 359.231 50.098,357.712 50.076,354.000 50.076 C 350.287 50.076,348.769 50.098,350.625 50.125 M108.833 50.333 C 108.638 50.460,108.681 50.495,109.032 50.497 C 109.279 50.499,109.527 50.425,109.583 50.333 C 109.715 50.121,109.163 50.121,108.833 50.333 M298.083 50.667 C 298.027 50.758,298.093 50.833,298.230 50.833 C 298.368 50.833,298.527 50.758,298.583 50.667 C 298.640 50.575,298.574 50.500,298.436 50.500 C 298.299 50.500,298.140 50.575,298.083 50.667 M185.278 50.778 C 185.217 50.839,185.171 51.045,185.177 51.236 C 185.187 51.555,185.201 51.551,185.347 51.184 C 185.511 50.776,185.477 50.579,185.278 50.778 M103.917 50.952 C 103.733 50.996,103.515 51.097,103.431 51.177 C 103.347 51.257,103.534 51.255,103.848 51.173 C 104.161 51.091,104.567 50.990,104.750 50.948 C 105.008 50.889,104.989 50.872,104.667 50.872 C 104.438 50.872,104.100 50.908,103.917 50.952 M299.125 50.954 C 299.423 50.991,299.910 50.991,300.208 50.954 C 300.506 50.917,300.262 50.887,299.667 50.887 C 299.071 50.887,298.827 50.917,299.125 50.954 M168.033 51.688 C 167.937 52.066,167.920 52.310,167.995 52.229 C 168.150 52.063,168.400 51.000,168.284 51.000 C 168.242 51.000,168.129 51.309,168.033 51.688 M60.245 51.583 C 60.202 51.721,60.130 51.950,60.085 52.092 C 60.040 52.234,60.069 52.310,60.149 52.261 C 60.228 52.212,60.330 51.983,60.374 51.752 C 60.461 51.297,60.371 51.179,60.245 51.583 M147.366 52.188 C 147.270 52.566,147.253 52.810,147.328 52.729 C 147.484 52.563,147.733 51.500,147.617 51.500 C 147.575 51.500,147.462 51.809,147.366 52.188 M200.254 51.875 C 200.025 52.566,199.866 53.365,199.983 53.236 C 200.138 53.064,200.504 51.667,200.394 51.667 C 200.355 51.667,200.292 51.760,200.254 51.875 M304.420 51.797 C 304.686 52.025,305.529 52.349,305.428 52.184 C 305.376 52.101,305.092 51.948,304.796 51.845 C 304.500 51.742,304.331 51.720,304.420 51.797 M152.254 53.559 C 152.206 53.710,152.132 53.946,152.089 54.083 C 152.046 54.221,152.047 54.333,152.093 54.333 C 152.220 54.333,152.520 53.464,152.425 53.370 C 152.379 53.323,152.302 53.409,152.254 53.559 M99.730 54.042 C 99.157 55.015,99.119 55.098,99.411 54.750 C 99.750 54.347,100.042 53.833,99.932 53.833 C 99.889 53.833,99.798 53.927,99.730 54.042 M261.820 54.061 C 262.042 54.334,262.667 54.747,262.667 54.621 C 262.667 54.589,262.423 54.384,262.125 54.166 C 261.790 53.921,261.673 53.881,261.820 54.061 M184.185 54.519 C 184.083 54.813,184.028 55.083,184.063 55.119 C 184.099 55.155,184.212 54.943,184.315 54.648 C 184.417 54.354,184.472 54.083,184.437 54.048 C 184.401 54.012,184.288 54.224,184.185 54.519 M307.567 54.494 C 307.695 54.812,307.885 55.088,307.988 55.107 C 308.098 55.127,308.105 55.107,308.004 55.057 C 307.910 55.010,307.833 54.880,307.833 54.768 C 307.833 54.656,307.721 54.418,307.584 54.240 C 307.360 53.950,307.359 53.977,307.567 54.494 M59.245 54.917 C 59.202 55.054,59.130 55.283,59.085 55.425 C 59.040 55.568,59.069 55.644,59.149 55.594 C 59.228 55.545,59.330 55.316,59.374 55.086 C 59.461 54.630,59.371 54.513,59.245 54.917 M146.411 55.417 C 146.368 55.554,146.297 55.783,146.252 55.925 C 146.207 56.068,146.236 56.144,146.315 56.094 C 146.395 56.045,146.496 55.816,146.540 55.586 C 146.627 55.130,146.538 55.013,146.411 55.417 M264.092 55.326 C 264.185 55.418,264.521 55.533,264.839 55.582 C 265.426 55.671,265.315 55.601,264.420 55.316 C 264.087 55.209,263.979 55.213,264.092 55.326 M199.033 56.021 C 198.937 56.399,198.920 56.643,198.995 56.563 C 199.150 56.397,199.400 55.333,199.284 55.333 C 199.242 55.333,199.129 55.643,199.033 56.021 M74.078 56.250 C 74.035 56.387,73.963 56.616,73.919 56.759 C 73.874 56.901,73.902 56.977,73.982 56.928 C 74.062 56.879,74.163 56.650,74.207 56.419 C 74.294 55.964,74.204 55.846,74.078 56.250 M98.491 56.458 C 98.153 57.384,98.144 57.420,98.301 57.250 C 98.483 57.052,98.851 56.000,98.737 56.000 C 98.694 56.000,98.583 56.206,98.491 56.458 M114.364 56.475 C 114.151 56.535,117.733 56.561,122.322 56.534 C 128.038 56.501,130.667 56.540,130.667 56.659 C 130.667 56.755,130.751 56.833,130.854 56.833 C 130.983 56.833,130.977 56.756,130.833 56.583 C 130.616 56.321,115.271 56.220,114.364 56.475 M273.750 56.455 C 283.672 56.570,291.628 56.572,291.558 56.458 C 291.515 56.390,286.629 56.351,280.698 56.372 C 274.768 56.393,271.642 56.430,273.750 56.455 M151.245 56.917 C 151.202 57.054,151.130 57.283,151.085 57.425 C 151.040 57.568,151.069 57.644,151.149 57.594 C 151.228 57.545,151.330 57.316,151.374 57.086 C 151.461 56.630,151.371 56.513,151.245 56.917 M130.620 57.281 C 130.575 57.355,130.493 57.679,130.437 58.000 L 130.334 58.583 130.584 57.931 C 130.807 57.351,130.830 56.924,130.620 57.281 M307.760 57.375 C 307.539 58.105,307.380 59.019,307.495 58.896 C 307.643 58.738,308.003 57.167,307.891 57.167 C 307.854 57.167,307.795 57.260,307.760 57.375 M315.917 57.667 C 315.717 57.753,317.049 57.814,319.250 57.819 C 321.675 57.825,322.832 57.774,322.667 57.667 C 322.358 57.467,316.380 57.467,315.917 57.667 M58.263 58.184 C 58.048 58.824,57.863 59.693,57.963 59.592 C 58.123 59.433,58.502 58.113,58.413 58.024 C 58.374 57.985,58.306 58.057,58.263 58.184 M166.064 58.240 C 165.733 59.104,165.576 59.083,172.502 59.086 L 178.917 59.089 172.523 59.043 L 166.129 58.996 166.203 58.498 C 166.280 57.967,166.215 57.846,166.064 58.240 M145.421 58.708 C 145.192 59.400,145.032 60.199,145.149 60.069 C 145.304 59.898,145.670 58.500,145.560 58.500 C 145.521 58.500,145.458 58.594,145.421 58.708 M97.599 59.141 C 97.551 59.218,97.474 59.612,97.428 60.016 C 97.347 60.728,97.366 60.689,97.665 59.542 C 97.803 59.015,97.776 58.855,97.599 59.141 M266.362 59.125 C 270.824 59.150,278.174 59.150,282.696 59.125 C 287.217 59.100,283.567 59.080,274.583 59.080 C 265.600 59.080,261.901 59.100,266.362 59.125 M121.833 59.500 L 113.583 59.588 121.782 59.627 C 127.111 59.653,130.016 59.608,130.083 59.500 C 130.140 59.408,130.163 59.351,130.135 59.373 C 130.107 59.394,126.371 59.452,121.833 59.500 M344.402 59.524 C 344.199 59.852,357.657 59.991,358.417 59.669 C 358.609 59.587,355.723 59.504,351.609 59.472 C 347.681 59.442,344.438 59.465,344.402 59.524 M72.866 60.354 C 72.770 60.732,72.753 60.976,72.828 60.896 C 72.984 60.730,73.233 59.667,73.117 59.667 C 73.075 59.667,72.962 59.976,72.866 60.354 M150.050 60.923 C 149.955 61.339,149.922 61.634,149.977 61.578 C 150.150 61.406,150.471 60.167,150.344 60.167 C 150.277 60.167,150.145 60.507,150.050 60.923 M257.779 60.958 C 257.664 61.154,257.451 62.260,257.546 62.167 C 257.656 62.060,257.993 60.833,257.913 60.833 C 257.880 60.833,257.820 60.890,257.779 60.958 M196.949 62.252 C 196.797 62.572,196.706 62.833,196.748 62.833 C 196.862 62.833,197.368 61.813,197.292 61.737 C 197.256 61.700,197.102 61.932,196.949 62.252 M57.078 62.250 C 57.035 62.387,56.963 62.616,56.919 62.759 C 56.874 62.901,56.902 62.977,56.982 62.928 C 57.062 62.879,57.163 62.650,57.207 62.419 C 57.294 61.964,57.204 61.846,57.078 62.250 M72.087 62.875 C 71.858 63.566,71.699 64.365,71.816 64.236 C 71.971 64.064,72.337 62.667,72.227 62.667 C 72.188 62.667,72.125 62.760,72.087 62.875 M149.078 64.250 C 149.035 64.387,148.963 64.616,148.919 64.759 C 148.874 64.901,148.902 64.977,148.982 64.928 C 149.062 64.879,149.163 64.650,149.207 64.419 C 149.294 63.964,149.204 63.846,149.078 64.250 M304.000 65.417 C 303.595 65.829,303.301 66.167,303.347 66.167 C 303.393 66.167,303.762 65.829,304.167 65.417 C 304.572 65.004,304.865 64.667,304.819 64.667 C 304.774 64.667,304.405 65.004,304.000 65.417 M194.740 65.542 L 194.250 66.083 194.792 65.594 C 195.297 65.138,195.410 65.000,195.281 65.000 C 195.252 65.000,195.009 65.244,194.740 65.542 M309.539 65.500 C 309.539 65.821,309.573 65.952,309.615 65.792 C 309.657 65.631,309.657 65.369,309.615 65.208 C 309.573 65.048,309.539 65.179,309.539 65.500 M56.078 65.583 C 56.035 65.721,55.963 65.950,55.919 66.092 C 55.874 66.234,55.902 66.310,55.982 66.261 C 56.062 66.212,56.163 65.983,56.207 65.752 C 56.294 65.297,56.204 65.179,56.078 65.583 M143.199 66.188 C 143.103 66.566,143.086 66.810,143.162 66.729 C 143.317 66.563,143.567 65.500,143.450 65.500 C 143.408 65.500,143.295 65.809,143.199 66.188 M70.911 66.917 C 70.868 67.054,70.797 67.283,70.752 67.425 C 70.707 67.568,70.736 67.644,70.815 67.594 C 70.895 67.545,70.996 67.316,71.040 67.086 C 71.127 66.630,71.038 66.513,70.911 66.917 M312.167 67.333 C 312.167 67.425,312.279 67.500,312.417 67.500 C 312.554 67.500,312.667 67.425,312.667 67.333 C 312.667 67.242,312.554 67.167,312.417 67.167 C 312.279 67.167,312.167 67.242,312.167 67.333 M320.250 67.333 C 320.193 67.425,320.259 67.500,320.397 67.500 C 320.534 67.500,320.693 67.425,320.750 67.333 C 320.807 67.242,320.741 67.167,320.603 67.167 C 320.466 67.167,320.307 67.242,320.250 67.333 M148.078 67.583 C 148.035 67.721,147.963 67.950,147.919 68.092 C 147.874 68.234,147.902 68.310,147.982 68.261 C 148.062 68.212,148.163 67.983,148.207 67.752 C 148.294 67.297,148.204 67.179,148.078 67.583 M299.875 67.839 C 299.317 68.063,299.421 68.177,300.000 67.975 C 300.275 67.879,300.500 67.771,300.500 67.734 C 300.500 67.635,300.297 67.669,299.875 67.839 M255.578 68.417 C 255.535 68.554,255.463 68.783,255.419 68.925 C 255.374 69.068,255.402 69.144,255.482 69.094 C 255.562 69.045,255.663 68.816,255.707 68.586 C 255.794 68.130,255.704 68.013,255.578 68.417 M378.625 68.791 C 380.573 68.818,383.760 68.818,385.708 68.791 C 387.656 68.765,386.063 68.743,382.167 68.743 C 378.271 68.743,376.677 68.765,378.625 68.791 M104.625 68.955 C 105.015 68.990,105.652 68.990,106.042 68.955 C 106.431 68.920,106.112 68.892,105.333 68.892 C 104.554 68.892,104.235 68.920,104.625 68.955 M183.880 68.956 C 184.318 68.990,184.993 68.990,185.380 68.955 C 185.767 68.920,185.408 68.892,184.583 68.892 C 183.758 68.893,183.442 68.922,183.880 68.956 M292.875 68.956 C 293.310 68.990,294.023 68.990,294.458 68.956 C 294.894 68.922,294.537 68.893,293.667 68.893 C 292.796 68.893,292.440 68.922,292.875 68.956 M107.127 69.118 C 107.334 69.158,107.634 69.156,107.794 69.115 C 107.953 69.073,107.783 69.040,107.417 69.042 C 107.050 69.044,106.920 69.078,107.127 69.118 M182.208 69.115 C 182.369 69.157,182.631 69.157,182.792 69.115 C 182.952 69.073,182.821 69.039,182.500 69.039 C 182.179 69.039,182.048 69.073,182.208 69.115 M291.208 69.115 C 291.369 69.157,291.631 69.157,291.792 69.115 C 291.952 69.073,291.821 69.039,291.500 69.039 C 291.179 69.039,291.048 69.073,291.208 69.115 M179.000 76.907 C 179.000 77.131,179.061 77.352,179.137 77.398 C 179.212 77.444,179.241 77.261,179.201 76.991 C 179.114 76.396,179.000 76.348,179.000 76.907 M198.581 77.663 C 198.624 77.733,198.868 77.832,199.122 77.883 C 199.376 77.935,199.733 78.030,199.917 78.096 C 200.140 78.176,200.195 78.160,200.083 78.048 C 199.882 77.844,198.470 77.483,198.581 77.663 M202.667 78.897 C 202.667 78.932,202.854 78.997,203.083 79.041 C 203.313 79.085,203.500 79.056,203.500 78.977 C 203.500 78.898,203.313 78.833,203.083 78.833 C 202.854 78.833,202.667 78.862,202.667 78.897 M206.086 79.838 C 206.128 79.905,206.348 79.996,206.576 80.039 C 206.804 80.083,206.956 80.063,206.914 79.996 C 206.872 79.928,206.652 79.838,206.424 79.794 C 206.196 79.750,206.044 79.770,206.086 79.838 M209.595 80.815 C 209.772 80.977,210.804 81.248,210.647 81.092 C 210.591 81.036,210.296 80.918,209.992 80.831 C 209.688 80.744,209.509 80.736,209.595 80.815 M213.104 81.823 C 213.184 81.895,213.578 82.034,213.979 82.131 C 214.380 82.229,214.643 82.249,214.563 82.177 C 214.482 82.105,214.089 81.966,213.687 81.869 C 213.286 81.771,213.024 81.751,213.104 81.823 M216.583 83.167 C 216.583 83.424,216.640 83.600,216.708 83.558 C 216.777 83.515,216.833 83.339,216.833 83.167 C 216.833 82.994,216.777 82.818,216.708 82.776 C 216.640 82.733,216.583 82.909,216.583 83.167 M182.333 84.000 C 182.529 84.275,182.727 84.500,182.773 84.500 C 182.819 84.500,182.696 84.275,182.500 84.000 C 182.304 83.725,182.106 83.500,182.061 83.500 C 182.015 83.500,182.138 83.725,182.333 84.000 M215.540 86.994 C 215.446 87.364,215.426 87.667,215.496 87.667 C 215.624 87.667,215.872 86.483,215.767 86.378 C 215.736 86.347,215.633 86.624,215.540 86.994 M187.500 89.227 C 187.500 89.273,187.725 89.471,188.000 89.667 C 188.275 89.862,188.500 89.985,188.500 89.939 C 188.500 89.894,188.275 89.696,188.000 89.500 C 187.725 89.304,187.500 89.181,187.500 89.227 M214.578 90.417 C 214.535 90.554,214.463 90.783,214.419 90.925 C 214.374 91.068,214.402 91.144,214.482 91.094 C 214.562 91.045,214.663 90.816,214.707 90.586 C 214.794 90.130,214.704 90.013,214.578 90.417 M191.333 91.619 C 191.471 91.670,191.733 91.781,191.917 91.865 C 192.245 92.016,192.245 92.014,191.926 91.759 C 191.749 91.617,191.486 91.506,191.343 91.513 C 191.119 91.525,191.117 91.539,191.333 91.619 M193.500 92.495 C 193.500 92.626,194.505 92.884,194.610 92.779 C 194.641 92.748,194.404 92.642,194.083 92.544 C 193.762 92.445,193.500 92.423,193.500 92.495 M213.616 93.625 C 213.565 93.877,213.470 94.233,213.404 94.417 C 213.320 94.650,213.338 94.700,213.463 94.583 C 213.646 94.411,213.934 93.167,213.789 93.167 C 213.745 93.167,213.667 93.373,213.616 93.625 M197.413 93.660 C 197.471 93.755,197.715 93.833,197.954 93.833 C 198.477 93.833,198.416 93.754,197.778 93.600 C 197.468 93.526,197.342 93.546,197.413 93.660 M200.925 94.654 C 201.012 94.738,201.383 94.852,201.750 94.906 L 202.417 95.004 201.667 94.755 C 200.781 94.460,200.716 94.451,200.925 94.654 M204.419 95.671 C 204.461 95.738,204.681 95.829,204.909 95.873 C 205.137 95.916,205.289 95.897,205.247 95.829 C 205.206 95.762,204.985 95.671,204.758 95.627 C 204.530 95.584,204.378 95.603,204.419 95.671 M207.937 96.656 C 208.018 96.728,208.411 96.867,208.813 96.965 C 209.214 97.062,209.476 97.083,209.396 97.011 C 209.316 96.938,208.922 96.800,208.521 96.702 C 208.120 96.605,207.857 96.584,207.937 96.656 M212.519 97.476 C 212.504 97.778,212.433 97.843,212.208 97.758 C 211.974 97.669,211.958 97.689,212.125 97.857 C 212.399 98.132,212.729 97.822,212.618 97.393 C 212.555 97.148,212.535 97.166,212.519 97.476 " stroke="none" fill="#343434" fill-rule="evenodd"></path></g></svg> 