<?xml version="1.0" standalone="no"?>
<!DOCTYPE svg PUBLIC "-//W3C//DTD SVG 20010904//EN"
 "http://www.w3.org/TR/2001/REC-SVG-20010904/DTD/svg10.dtd">
<svg version="1.0" xmlns="http://www.w3.org/2000/svg"
 width="445.000000pt" height="600.000000pt" viewBox="0 0 445.000000 600.000000"
 preserveAspectRatio="xMidYMid meet">

<g transform="translate(0.000000,600.000000) scale(0.100000,-0.100000)"
fill="#000000" stroke="none">
<path d="M680 5356 c0 -23 345 -855 363 -872 9 -10 419 -25 822 -32 426 -8
1304 1 1524 16 l115 7 39 90 c122 282 311 764 303 772 -7 7 -220 -341 -396
-645 -40 -71 -43 -74 -73 -68 -18 3 -198 10 -402 17 -363 12 -1547 7 -1750 -7
l-90 -6 -55 93 c-140 241 -399 652 -400 635z"/>
<path d="M1083 4293 c3 -5 62 -116 132 -248 231 -435 533 -983 723 -1310 165
-286 274 -466 278 -462 4 4 -107 268 -239 567 -115 261 -319 705 -496 1076
-44 95 -81 174 -81 178 0 3 392 6 870 6 479 0 870 -2 870 -5 0 -4 -61 -137
-136 -298 -274 -588 -681 -1513 -671 -1524 4 -4 133 212 284 477 163 284 490
886 727 1335 l105 200 -192 6 c-280 9 -2179 10 -2174 2z"/>
<path d="M4282 1554 c-81 -40 -114 -67 -265 -206 -94 -88 -185 -174 -202 -190
l-30 -31 40 23 c62 37 178 110 310 195 125 80 187 133 236 199 53 71 37 73
-89 10z"/>
<path d="M3224 1502 c-100 -48 -200 -101 -222 -119 l-40 -32 -7 47 c-3 26 -14
76 -23 112 l-16 65 -13 -50 c-58 -225 -58 -629 1 -850 13 -49 13 -49 20 -20 6
28 11 31 72 43 36 7 80 20 97 29 32 16 196 139 257 193 l35 30 -50 -19 c-202
-76 -302 -125 -349 -170 -27 -25 -46 -39 -43 -30 6 17 26 181 30 244 2 34 5
40 27 43 76 9 131 39 278 149 83 63 152 116 152 118 0 4 -142 -54 -280 -114
-52 -23 -112 -55 -132 -72 l-38 -30 0 34 c0 19 -3 68 -6 109 l-7 76 33 7 c67
15 123 49 257 156 155 125 171 139 158 138 -6 0 -92 -39 -191 -87z"/>
<path d="M1490 1511 c-185 -86 -251 -120 -291 -152 l-36 -29 -13 73 c-6 39
-17 90 -24 112 l-12 40 -17 -80 c-28 -130 -36 -220 -37 -397 0 -167 18 -342
43 -429 l14 -44 7 33 c6 27 12 32 36 32 74 0 146 36 278 139 72 55 133 105
137 111 5 9 -152 -53 -290 -114 -33 -15 -80 -46 -104 -69 -30 -30 -42 -36 -38
-22 11 36 27 176 27 226 0 45 2 49 28 54 100 20 134 38 276 146 81 61 145 113
143 115 -2 3 -85 -30 -184 -72 -131 -55 -190 -86 -217 -111 l-36 -35 0 33 c0
19 -3 71 -7 117 -6 76 -5 82 13 82 52 1 139 53 282 169 133 107 160 131 150
131 -2 0 -59 -26 -128 -59z"/>
<path d="M2052 1540 c-29 -73 -46 -230 -46 -435 -1 -199 6 -275 36 -412 11
-53 28 -72 28 -32 0 14 12 25 43 38 23 10 108 47 189 81 123 51 153 68 187
105 54 59 53 69 -6 60 -76 -10 -139 -45 -272 -149 -68 -54 -124 -96 -126 -94
-1 2 4 39 13 83 23 120 22 498 -1 626 -10 53 -22 109 -26 125 l-8 29 -11 -25z"/>
<path d="M669 1412 c-62 -96 -157 -262 -242 -421 l-55 -103 -57 108 c-83 156
-201 358 -253 434 -54 79 -52 64 20 -135 71 -197 274 -664 289 -665 13 0 184
378 261 580 46 120 100 282 95 286 -1 2 -28 -36 -58 -84z"/>
<path d="M4030 1143 c-19 -1 -73 -6 -120 -10 l-85 -7 65 -12 c36 -7 116 -18
178 -25 61 -7 112 -15 111 -18 0 -3 -29 -28 -64 -55 -88 -68 -254 -220 -312
-286 l-48 -54 60 34 c180 101 447 287 580 404 l40 35 -185 -1 c-102 -1 -201
-3 -220 -5z"/>
</g>
</svg>
